<?xml version="1.0" encoding="UTF-8"?>
<svg id="BACKGROUND" xmlns="http://www.w3.org/2000/svg" xmlns:xlink="http://www.w3.org/1999/xlink" viewBox="0 0 1254.29 1080">
  <defs>
    <style>
      .cls-1 {
        fill: #518a81;
      }

      .cls-2 {
        fill: #cff6f1;
      }

      .cls-3 {
        fill: #8e5b58;
      }

      .cls-4 {
        fill: #fff8ff;
      }

      .cls-5 {
        fill: #497e78;
      }

      .cls-6 {
        fill: #938080;
      }

      .cls-7 {
        fill: #72a097;
      }

      .cls-8 {
        fill: #fff;
      }

      .cls-9 {
        fill: #f5d95c;
      }

      .cls-10 {
        fill: #f7ece2;
      }

      .cls-11 {
        fill: #faf7f2;
      }

      .cls-12 {
        fill: #86d07b;
      }

      .cls-13, .cls-14 {
        fill: none;
      }

      .cls-15 {
        fill: #e2ac13;
      }

      .cls-16 {
        fill: #a06561;
      }

      .cls-17 {
        clip-path: url(#clippath-1);
      }

      .cls-18 {
        fill: #e3fcff;
      }

      .cls-19 {
        fill: #e8b513;
      }

      .cls-20 {
        fill: #5ea550;
      }

      .cls-21 {
        fill: #c5bbaf;
      }

      .cls-22 {
        clip-path: url(#clippath-3);
      }

      .cls-23 {
        fill: #4f8b7f;
      }

      .cls-24 {
        fill: #b5ee79;
      }

      .cls-25 {
        fill: #3d2a2a;
      }

      .cls-26 {
        fill: #723f43;
      }

      .cls-27 {
        fill: #683a3e;
        opacity: .2;
      }

      .cls-14 {
        stroke: #895557;
        stroke-linecap: round;
        stroke-linejoin: round;
        stroke-width: 2.33px;
      }

      .cls-28 {
        fill: #6cd6b2;
      }

      .cls-29 {
        fill: #f9c430;
      }

      .cls-30 {
        clip-path: url(#clippath-2);
      }

      .cls-31 {
        fill: #eae5df;
      }

      .cls-32 {
        fill: #6fb762;
      }

      .cls-33 {
        fill: #f5c314;
      }

      .cls-34 {
        fill: #bae0db;
      }

      .cls-35 {
        fill: #bc8382;
      }

      .cls-36 {
        fill: #6cbba5;
      }

      .cls-37 {
        clip-path: url(#clippath);
      }

      .cls-38 {
        fill: #895557;
      }

      .cls-39 {
        fill: #5b2e33;
      }

      .cls-40 {
        fill: #72bbaa;
      }
    </style>
    <clipPath id="clippath">
      <rect class="cls-13" x="-.93" y="-.47" width="1920.92" height="1080.52" transform="translate(1919.07 1079.59) rotate(180)"/>
    </clipPath>
    <clipPath id="clippath-1">
      <rect class="cls-13" x="-.93" y="-50.49" width="1920.92" height="1080.52" transform="translate(1919.07 979.54) rotate(180)"/>
    </clipPath>
    <clipPath id="clippath-2">
      <rect class="cls-13" x="-.93" y="-50.49" width="1920.92" height="1080.52" transform="translate(1919.07 979.54) rotate(180)"/>
    </clipPath>
    <clipPath id="clippath-3">
      <rect class="cls-13" x="47.69" y="812.03" width="80.71" height="42.28" transform="translate(-9.54 1.06) rotate(-.66)"/>
    </clipPath>
  </defs>
  <rect class="cls-18" x="-.93" y="-.47" width="1254.89" height="1080.52"/>
  <g class="cls-37">
    <path class="cls-2" d="M1281.17-37.54c-.49,118.64-118.69,207.2-235.6,227.42-116.91,20.22-236.13-7.3-354.63-13.18-126.16-6.27-260.68,15.52-356.77,97.52-96.09,82-136.76,236.49-62.98,339.02,53.71,74.65,151.17,104.57,242.96,110.29,91.78,5.72,184.26-7.83,275.69,2.04,91.43,9.87,187.26,49.58,230.38,130.81,19.16,36.1,103.63,76.99,157.48,92.18,54.97,15.5,277.53,51.66,386.74,38.01,59.29-7.41,119.24-16.82,173.66-41.49,54.42-24.68,103.41-66.64,124.38-122.59,25.45-67.93,6.55-143.59,10.98-216,6.7-109.59,71.61-213.93,166.95-268.37-18.4,196.33-36.79,392.66-55.19,588.99-7.82,83.45-17.63,172.07-69.74,237.71-65.02,81.91-178.39,106.18-282.8,112.24-246.28,14.29-491.4-41.92-738.08-44.64-203.33-2.24-406.89,31.88-609.38,13.3-202.49-18.57-414.61-102.89-516.03-279.13-66.47-115.51-76.73-254.68-72.11-387.87,4.76-137.14,23.63-273.78,56.21-407.08,18.82-77.01,45.58-157.99,108.26-206.52C-62.58-93.61,42.98-88.4,138.71-81.8c374.81,25.87,751.08,30.63,1126.42,14.24l16.03,30.01Z"/>
  </g>
  <path class="cls-8" d="M147.03,34c5.09-2.94,11.62-1.19,14.55,3.9,2.94,5.09,1.19,11.62-3.9,14.55-4.75,2.74-10.75,1.4-13.91-2.92l-12.16,7.02-1.17-2.02,12.16-7.02c-2.16-4.91-.32-10.77,4.43-13.51ZM144.92,47.52c2.37,4.1,7.63,5.51,11.73,3.14,4.1-2.37,5.51-7.63,3.14-11.73-2.37-4.1-7.63-5.51-11.73-3.14s-5.51,7.63-3.14,11.73Z"/>
  <g class="cls-17">
    <g>
      <ellipse class="cls-34" cx="290.8" cy="843.21" rx="196.4" ry="67.28"/>
      <ellipse class="cls-34" cx="61.61" cy="833.14" rx="104.11" ry="35.67"/>
      <ellipse class="cls-34" cx="497.02" cy="883.35" rx="104.11" ry="35.67"/>
      <ellipse class="cls-34" cx="790.36" cy="979.27" rx="104.11" ry="35.67"/>
      <path class="cls-34" d="M1129.6,979.4c11.74-1.87-40.9,21.53-91.36,21.53s-91.36-9.64-91.36-21.53,40.9-21.53,91.36-21.53,71.15,24.74,91.36,21.53Z"/>
      <ellipse class="cls-34" cx="1130.5" cy="983.05" rx="52.29" ry="13.42"/>
      <ellipse class="cls-34" cx="934.3" cy="980.39" rx="31.39" ry="10.75"/>
      <ellipse class="cls-34" cx="978.28" cy="987.69" rx="31.39" ry="10.75"/>
      <ellipse class="cls-34" cx="160.19" cy="925.77" rx="74.07" ry="35.4"/>
      <ellipse class="cls-34" cx="83.49" cy="925.77" rx="45.95" ry="21.96"/>
      <ellipse class="cls-34" cx="719.48" cy="763.23" rx="85.66" ry="29.35"/>
      <ellipse class="cls-34" cx="633.82" cy="820.35" rx="70.43" ry="29.96"/>
      <ellipse class="cls-34" cx="508.48" cy="811.43" rx="85.66" ry="29.35"/>
      <ellipse class="cls-34" cx="698.26" cy="809.66" rx="44.06" ry="15.09"/>
      <path class="cls-34" d="M324.32,936.98c-1.28,6.88-3.35,14.1-8.63,18.7-5.39,4.7-13,5.69-20.13,6.3-35.66,3.06-71.68,1.85-107.06-3.6-1.16-.18-2.41-.41-3.19-1.28-1.01-1.12-.85-2.83-.61-4.32,2.69-17.03,7.26-33.76,13.61-49.79.66-1.67,1.42-3.43,2.91-4.43,1.43-.96,3.25-1.04,4.97-1.08,21.97-.53,43.96-.35,65.92.55,10.98.45,21.95,1.08,32.91,1.88,5.55.41,17.36-.85,20.61,5.19,2.12,3.94,1.03,10.05.79,14.3-.33,5.9-1.04,11.77-2.12,17.58Z"/>
      <ellipse class="cls-34" cx="583.46" cy="990.03" rx="31.39" ry="10.75"/>
      <ellipse class="cls-34" cx="816.67" cy="818.26" rx="21.39" ry="7.33"/>
    </g>
  </g>
  <g>
    <g>
      <path class="cls-24" d="M725.44,498.84s-26.97-65.72,2.56-78.25c0,0,16.16-3.88,22.22,17.89,0,0,13.93-69.73,52.45-58.63,0,0,30.79,10.36-7.94,72.99,0,0,15.98-7.82,24.56,4.59,3.28,4.75,4.05,10.79,2.52,16.35-4.95,18.04-39.55,71.34-63.28,65.22-23.73-6.12-33.07-40.17-33.07-40.17Z"/>
      <path class="cls-12" d="M791.8,397.07c-25.21,32.55-35.95,76.57-28.88,117.1.48,2.7,1.02,5.39,1.6,8.06-2.58-43.33,6.79-86.87,27.27-125.15h0Z"/>
      <path class="cls-12" d="M810.2,466.51c-20.09,9.19-39.45,30.19-36.55,53.65,4.81-22.31,20.71-38.06,36.55-53.65h0Z"/>
      <path class="cls-12" d="M730.84,432.38c-5.13,31.21,4.7,64.62,24.03,89.4-12.88-28.38-21.83-58.21-24.03-89.4h0Z"/>
    </g>
    <g>
      <path class="cls-24" d="M631.09,527.08s-50.66-49.8-28.44-72.94c0,0,13.33-9.93,27.47,7.71,0,0-14.63-69.59,25.14-74.54,0,0,32.39-2.59,21.42,70.23,0,0,11.61-13.48,24.38-5.44,4.88,3.08,7.97,8.32,8.75,14.04,2.54,18.53-8.29,81.15-32.51,84.86-24.22,3.71-46.21-23.91-46.21-23.91Z"/>
      <path class="cls-12" d="M652.04,407.4c-10.37,39.85-2.91,84.54,19.53,119.01,1.5,2.3,3.06,4.55,4.64,6.77-19.42-38.82-27.94-82.54-24.18-125.79h0Z"/>
      <path class="cls-12" d="M696.28,464c-14.85,16.36-24.39,43.28-12.49,63.71-4.36-22.4,4.06-43.13,12.49-63.71h0Z"/>
      <path class="cls-12" d="M609.9,463.85c7.57,30.71,29.75,57.55,57.27,72.73-23.01-21.02-42.98-44.93-57.27-72.73h0Z"/>
    </g>
    <g>
      <path class="cls-12" d="M731.28,581.72s-9-86.89,30.18-91.42c0,0,20.42,1.03,19.99,28.82,0,0,40.64-77.42,82.22-50.95,0,0,32.73,22.91-34.71,83.35,0,0,21.57-3.68,27.37,13.94,2.22,6.74,1.04,14.13-2.7,20.16-12.11,19.56-71.43,70.43-97.29,54.97-25.86-15.46-25.07-58.87-25.07-58.87Z"/>
      <path class="cls-32" d="M844.89,484.7c-41.04,29.65-68.98,77.84-74.72,128.11-.37,3.35-.67,6.71-.9,10.06,12-52.01,38.17-100.12,75.62-138.17h0Z"/>
      <path class="cls-32" d="M842.49,573.01c-26.89,3.87-57.02,21.92-61.74,50.6,13.42-24.65,37.64-37.7,61.74-50.6h0Z"/>
      <path class="cls-32" d="M760.73,505.19c-16.89,35.04-16.89,77.86-2.68,113.8-5.34-37.95-5.54-76.25,2.68-113.8h0Z"/>
    </g>
    <g>
      <path class="cls-12" d="M717.01,591.83s9-86.89-30.18-91.42c0,0-20.42,1.03-19.99,28.82,0,0-40.64-77.42-82.22-50.95,0,0-32.73,22.91,34.71,83.35,0,0-21.57-3.68-27.37,13.95-2.22,6.74-1.03,14.13,2.7,20.16,12.11,19.56,71.43,70.43,97.29,54.97,25.86-15.46,25.07-58.87,25.07-58.87Z"/>
      <path class="cls-32" d="M603.41,494.81c41.04,29.65,68.98,77.84,74.72,128.11.37,3.35.67,6.71.9,10.06-12-52.01-38.17-100.12-75.62-138.17h0Z"/>
      <path class="cls-32" d="M605.81,583.11c26.89,3.87,57.02,21.92,61.74,50.6-13.42-24.65-37.64-37.7-61.74-50.6h0Z"/>
      <path class="cls-32" d="M687.57,515.3c16.89,35.04,16.89,77.86,2.68,113.8,5.34-37.95,5.54-76.25-2.68-113.8h0Z"/>
    </g>
    <g>
      <path class="cls-32" d="M773.35,611.36s33.16-80.81-3.14-96.22c0,0-19.88-4.77-27.32,22,0,0-17.13-85.75-64.49-72.09,0,0-37.87,12.74,9.77,89.76,0,0-19.65-9.62-30.2,5.65-4.03,5.84-4.98,13.26-3.1,20.1,6.09,22.18,48.64,87.73,77.82,80.2,29.18-7.53,40.67-49.4,40.67-49.4Z"/>
      <path class="cls-20" d="M691.75,486.22c31,40.03,44.2,94.15,35.51,143.99-.59,3.32-1.25,6.63-1.97,9.91,3.17-53.28-8.36-106.82-33.54-153.9h0Z"/>
      <path class="cls-20" d="M669.13,571.61c24.71,11.3,48.51,37.13,44.94,65.97-5.91-27.43-25.46-46.8-44.94-65.97h0Z"/>
      <path class="cls-20" d="M766.7,529.63c6.31,38.38-5.78,79.46-29.55,109.93,15.84-34.9,26.84-71.58,29.55-109.93h0Z"/>
    </g>
    <g>
      <path class="cls-3" d="M656.18,647.21h131.27v88.34c0,18.24-14.81,33.05-33.05,33.05h-65.17c-18.24,0-33.05-14.81-33.05-33.05v-88.34h0Z"/>
      <polygon class="cls-38" points="787.45 675.04 787.45 647.21 656.18 647.21 656.18 683.17 787.45 675.04"/>
      <rect class="cls-16" x="628.33" y="625.39" width="184.47" height="31.33" rx="15.65" ry="15.65"/>
    </g>
  </g>
  <g>
    <g>
      <path class="cls-23" d="M754.7,494.97H226.57l210.52-210.52h143.32l179.8,198.07c4.34,4.78.95,12.44-5.51,12.44Z"/>
      <polygon class="cls-9" points="709.4 477.27 709.4 809.97 131.95 809.97 131.95 451.79 297 310.19 552.21 310.19 709.4 477.27"/>
      <path class="cls-19" d="M464.01,809.97v-241.03c0-56.17,45.54-101.71,101.71-101.71h0c56.17,0,101.71,45.54,101.71,101.71v241.03h-203.43Z"/>
    </g>
    <g>
      <polygon class="cls-33" points="396.4 310.19 396.4 809.97 131.95 809.97 131.95 451.79 297 310.19 396.4 310.19"/>
      <path class="cls-19" d="M131.95,559.7c9.62,60.99,41.13,173.82,143.37,193.87,55.85,10.96,94.61,17.22,121.08,20.8v35.61H131.95v-250.28Z"/>
    </g>
    <g>
      <g>
        <path class="cls-38" d="M656.23,750.85c5.75,9.72,17.59,13.93,28.72,15.82,11.13,1.89,22.83,2.29,32.88,7.42,7.01,3.58,13.04,9.71,14.97,17.34,1.93,7.63-1.02,16.66-7.91,20.49-4.69,2.6-10.33,2.58-15.69,2.48-11.03-.2-22.07-.4-33.1-.59-11.68-.21-23.48-.43-34.82-3.25-7.63-1.89-15.16-5.07-20.77-10.58-4.84-4.75-7.97-10.96-10.47-17.26-3.98-10.03-6.57-20.84-5.59-31.58.98-10.75,5.89-21.44,14.6-27.8,7.35-5.36,22.27-8.91,29.64-1.49,2.89,2.91,3.45,7.1,3.68,11.01.37,6.36.51,12.33,3.86,18Z"/>
        <path class="cls-16" d="M448.75,789.67c2.98-42.29-3.37-68.78-.39-111.06.16-2.3.36-4.72,1.56-6.62,3.11-4.95,10-3.13,15.09-1.01,27.17,11.29,66.2-.54,95.15-4.35,7.5-.99,15.92-3.19,19.72-10.39,1.99-3.76,2.51-8.61,5.56-11.38,4.1-3.72,10.18-1.64,15.05.61,14.13,6.53,28.25,13.06,42.38,19.58,4.76,2.2,14.12,4.27,17.06,9.37,2.8,4.87-2.09,11.39-3.28,16.21-2.02,8.21-.7,15.64-1.06,23.83,1.59,13.64,5.82,26.76,7.28,40.42,1.2,11.18.21,23.34-4.96,32.86,2.15.76,4.26,1.68,6.29,2.81,7,3.9,13,10.61,14.9,18.99,1.9,8.38-1.1,18.31-8,22.54-4.7,2.88-10.35,2.87-15.71,2.79-11.04-.17-22.07-.34-33.11-.51-11.68-.18-23.49-.38-34.82-3.42-7.63-2.05-15.14-5.51-20.73-11.54-2.3-2.49-4.21-5.35-5.85-8.41-34.85-.64-72.82,2.36-107.48-1.98-1.92-.24-3.95-.53-5.45-1.86-2.58-2.28.53-13.86.78-17.51Z"/>
        <path class="cls-38" d="M451.57,727.6c.48-1.22,1.08-2.56,2.3-3.03,1.6-.63,3.31.57,4.56,1.76,3.05,2.89,5.75,6.15,8.02,9.69,2.09,3.27,3.91,6.89,7,9.24,3.7,2.82,8.59,3.35,13.13,4.39,14.44,3.28,27.35,12.78,34.79,25.58,3.64,6.27,5.95,13.29,6.84,20.48.65,5.21.3,10.27-.2,15.42-25.03.39-50.6.9-74.59-2.1-1.92-.24-3.95-.53-5.45-1.86-2.58-2.28.52-13.86.78-17.51,1.46-20.73.68-37.66-.15-54.52.98-2.53,1.97-5.04,2.96-7.55Z"/>
        <g>
          <path class="cls-14" d="M593.69,747.66s-7.68,44.74,64.05,40.54"/>
          <path class="cls-14" d="M549.16,769.25s-5.34,19.38,11.67,39.73"/>
        </g>
        <path class="cls-27" d="M447.97,807.17c-2.58-2.28.52-13.86.78-17.5,2.98-42.29-3.37-68.78-.39-111.06.16-2.3.36-4.72,1.56-6.62,3.11-4.95,10-3.13,15.09-1.01,17.5,7.27,39.92,4.95,61.4,1.36-9.2,13.1-26.52,19.32-37.96,31.09-11.01,11.32-15.95,27.25-18.17,42.89-2.22,15.63-2.09,31.55-4.81,47.11-1,5.74-2.83,11.93-6.45,16.24-1.87-.19-3.74-.39-5.59-.63-1.92-.24-3.95-.53-5.45-1.86Z"/>
      </g>
      <g>
        <path class="cls-28" d="M655.81,716.05c-1.42-.02-2.82-.07-4.21-.13-13.28-.64-27-1.39-38.77-7.89-7.12-3.93-30.36-18.05-47.08-42.4,5.75-1.37,11.25-3.95,14.12-9.39,1.99-3.76,2.51-8.61,5.56-11.38,4.1-3.72,10.18-1.64,15.05.61,14.13,6.53,28.25,13.06,42.38,19.58,4.76,2.2,14.12,4.27,17.06,9.37,2.8,4.87-2.09,11.39-3.28,16.21-2.02,8.21-.7,15.64-1.06,23.83.06.53.15,1.05.22,1.58Z"/>
        <path class="cls-19" d="M622.16,718.64c-.35,8.06,5.9,14.88,13.96,15.23,8.06.35,14.88-5.9,15.23-13.96s-5.9-14.88-13.96-15.23c-8.06-.35-14.88,5.9-15.23,13.96Z"/>
        <path class="cls-4" d="M625.83,719.94s-.03,0-.05,0c-.63-.03-1.12-.56-1.09-1.19.14-3.22,1.53-6.19,3.9-8.37,2.38-2.18,5.45-3.3,8.68-3.16.63.03,1.11.56,1.09,1.19-.03.63-.57,1.09-1.19,1.09-5.39-.22-9.97,3.96-10.21,9.36-.03.61-.53,1.09-1.14,1.09Z"/>
      </g>
      <g>
        <g>
          <path class="cls-26" d="M649.61,580.19c6.47,4.36,14.04,7.2,19.59,12.69,6.87,6.79,9.69,16.78,10.18,26.43.49,9.65-1.05,19.28-1.55,28.92-.5,9.65.15,19.7,4.66,28.25,2.33,4.43,5.81,8.44,10.4,10.44,6.09,2.65,13.59,1.25,18.66-3.04,5.07-4.29,7.68-11.15,7.26-17.78-.4-6.47-3.42-12.5-4.26-18.93-.83-6.37.59-13.01,3.94-18.49,2.7-4.41,6.7-8.28,7.65-13.36,1.1-5.85-2.15-11.59-5.59-16.45-13.51-19.13-32.25-34.82-54.13-43.19-4.63-1.77-9.54-3.23-14.48-2.76-4.95.48-12.49,4.48-13.41,9.95-1.15,6.88,6.03,13.93,11.07,17.33Z"/>
          <path class="cls-39" d="M669.21,592.88c-5.55-5.48-13.13-8.32-19.59-12.69-5.04-3.4-12.22-10.45-11.07-17.33.91-5.46,8.46-9.47,13.41-9.95,1.13-.11,2.26-.11,3.39-.03,5.96,2.99,11.77,6.28,17.36,9.92,8.47,5.5,16.82,12.15,20.7,21.47,2.95,7.1,3.01,15,4.04,22.62,2.39,17.63,10.22,35.11,6.82,52.58l-3.89-.31c-6.13,4.23-14,4.72-21.44,5.08-.13,0-.26.01-.39.02-.88-5.26-.99-10.7-.71-16.03.5-9.65,2.04-19.27,1.55-28.92-.49-9.65-3.3-19.64-10.18-26.43Z"/>
        </g>
        <path class="cls-16" d="M660.24,559.59c14.23,8.17,25.02,22.14,29.32,37.98,2.56,9.43,2.95,19.52,7.08,28.37,5.18,11.09,7.02,18.65,10.16,30.48,3.5,13.16-13.07,45.87-45.06,46.2-20.84.21-42.18-5.23-58.81-17.79-16.64-12.56-32.69-33.68-31.15-54.47,1.02-13.82-2.31-34,3.88-46.4,4.6-9.2,18.59-28.54,38.44-30.98,14.75-1.81,34.02-.35,46.14,6.61Z"/>
        <path class="cls-38" d="M575.66,583.96c4.6-9.2,18.59-28.54,38.44-30.98,5.03-.62,10.6-.84,16.22-.61,4.39,17.22,12.45,56.52-.5,72.96-13.64,17.33-30.1,25.68-54.41,25.43-2.72-6.62-4.15-13.53-3.64-20.4,1.02-13.82-2.31-34,3.88-46.4Z"/>
        <path class="cls-38" d="M642.2,553.6c6.69,1.15,12.99,3.08,18.04,5.99,14.23,8.17,25.02,22.14,29.32,37.98,2.56,9.43,2.95,19.52,7.08,28.37,2.67,5.71,4.45,10.49,5.98,15.4-19.43,1.25-34.51-4.79-48.53-17.84-14.73-13.71-13.52-51.29-11.9-69.89Z"/>
        <g>
          <path class="cls-26" d="M606.39,578.97c-7.11,5.77-15.67,9.87-21.59,16.85-7.33,8.64-9.58,20.61-9.16,31.93.42,11.33,3.22,22.41,4.79,33.64,1.58,11.22,1.86,23.04-2.52,33.49-2.27,5.42-5.92,10.46-11.07,13.27-6.84,3.72-15.75,2.87-22.12-1.62-6.36-4.49-10.12-12.24-10.32-20.02-.2-7.6,2.71-14.96,3.02-22.56.31-7.53-2.03-15.14-6.52-21.2-3.61-4.87-8.68-8.98-10.32-14.83-1.89-6.73,1.32-13.76,4.83-19.8,13.81-23.75,34.09-44.02,58.79-56.06,5.23-2.55,10.82-4.76,16.63-4.72,5.83.05,15.06,3.95,16.69,10.24,2.06,7.92-5.61,16.9-11.14,21.39Z"/>
          <path class="cls-39" d="M537.38,664.62c.01-.23.05-.45.05-.68.31-7.53-2.03-15.14-6.52-21.2-3.61-4.87-8.68-8.98-10.32-14.83-1.89-6.73,1.32-13.76,4.83-19.8,13.81-23.75,34.09-44.02,58.79-56.06,5.23-2.55,10.82-4.76,16.63-4.72,1.38.01,2.96.25,4.58.67-1.97,3.02-5.49,4.73-8.8,6.27-21.71,10.13-43.46,22.76-56.41,42.91-3.32,5.17-6.05,10.93-6.35,17.07-.42,8.28,3.56,16.06,5.35,24.15,1.92,8.67,1.22,17.87-1.83,26.21Z"/>
        </g>
        <g>
          <g>
            <path class="cls-39" d="M647.84,643.83l20.65-.05c4.94-.01,7.44,5.94,3.97,9.46l-10.3,10.46c-2.17,2.2-5.72,2.21-7.9.02l-10.35-10.41c-3.48-3.5-1.01-9.46,3.93-9.48Z"/>
            <g>
              <path class="cls-39" d="M658.28,681.91s.04,0,.05,0c.62,0,1.13-.51,1.13-1.13l-.04-19.05c0-.62-.57-1.13-1.13-1.13-.62,0-1.13.51-1.13,1.13l.04,19.05c0,.61.48,1.1,1.08,1.13Z"/>
              <path class="cls-39" d="M656.85,681.83c7.11.31,15.57-1.54,24.7-8.04.51-.36.63-1.07.27-1.58-.36-.51-1.07-.63-1.58-.27-23.84,16.98-42.2.88-42.97.19-.46-.42-1.18-.38-1.6.08-.42.46-.38,1.18.08,1.59.13.12,8.47,7.47,21.09,8.02Z"/>
            </g>
          </g>
          <g>
            <path class="cls-35" d="M671.02,672.5c-1.3-.06-1.21-2.07.09-2.01,1.3.06,1.21,2.07-.09,2.01h0Z"/>
            <path class="cls-35" d="M668.23,665.74c-1.3-.06-1.21-2.07.09-2.01,1.3.06,1.21,2.07-.09,2.01h0Z"/>
            <path class="cls-35" d="M677.74,667.08c-1.3-.06-1.21-2.07.09-2.01,1.3.06,1.21,2.07-.09,2.01h0Z"/>
            <path class="cls-35" d="M683.49,662.4c-1.3-.06-1.21-2.07.09-2.01,1.3.06,1.21,2.07-.09,2.01h0Z"/>
            <path class="cls-35" d="M674.64,660.31c-1.3-.06-1.21-2.07.09-2.01,1.3.06,1.21,2.07-.09,2.01h0Z"/>
            <path class="cls-35" d="M652.47,673.54c-1.3-.06-1.21-2.07.09-2.01,1.3.06,1.21,2.07-.09,2.01h0Z"/>
            <path class="cls-35" d="M642.18,672.32c-1.3-.06-1.21-2.07.09-2.01,1.3.06,1.21,2.07-.09,2.01h0Z"/>
            <path class="cls-35" d="M647.66,667.01c-1.3-.06-1.21-2.07.09-2.01,1.3.06,1.21,2.07-.09,2.01h0Z"/>
            <path class="cls-35" d="M639.19,663.09c-1.3-.06-1.21-2.07.09-2.01,1.3.06,1.21,2.07-.09,2.01h0Z"/>
            <path class="cls-35" d="M634.75,665.83c-1.3-.06-1.21-2.07.09-2.01,1.3.06,1.21,2.07-.09,2.01h0Z"/>
          </g>
          <g>
            <g>
              <path class="cls-39" d="M664.36,610.3c1.51,6.11,5.58,10.36,9.09,9.5,3.51-.87,5.13-6.52,3.62-12.64-1.51-6.11-5.58-10.36-9.09-9.5-3.51.87-5.13,6.52-3.62,12.64Z"/>
              <path class="cls-4" d="M665.34,602.77c-.08,1.78,1.3,3.29,3.08,3.36,1.78.08,3.29-1.3,3.36-3.08.08-1.78-1.3-3.29-3.08-3.36-1.78-.08-3.29,1.3-3.36,3.08Z"/>
            </g>
            <g>
              <path class="cls-39" d="M609.15,610.67c-.27,6.29,2.43,11.52,6.04,11.67,3.61.16,6.76-4.81,7.03-11.1.27-6.29-2.43-11.52-6.04-11.67-3.61-.16-6.76,4.81-7.03,11.1Z"/>
              <path class="cls-4" d="M612.75,604.34c-.08,1.78,1.3,3.29,3.08,3.36,1.78.08,3.29-1.3,3.36-3.08.08-1.78-1.3-3.29-3.08-3.36-1.78-.08-3.29,1.3-3.36,3.08Z"/>
            </g>
          </g>
        </g>
      </g>
    </g>
    <rect class="cls-9" x="416.75" y="637.62" width="47.26" height="172.36" transform="translate(880.75 1447.59) rotate(180)"/>
    <g>
      <path class="cls-23" d="M77.24,492.27l5.6,1.78,148.24-193.97h360.01l-146.34,207.37c-1.39,1.98-3.66,3.15-6.08,3.15H73.66c-2.16,0-4.16-1.13-5.26-2.98l-8.88-12.65,17.72-2.7Z"/>
      <g>
        <path class="cls-28" d="M59.51,494.97h368.48c2.42,0,4.69-1.18,6.08-3.15l146.34-207.37H220.41L59.51,494.97Z"/>
        <path class="cls-36" d="M427.99,494.97H59.51l107.54-140.7c-15.47,38.24-32,99.99,18.99,106.64,74.44,9.71,248.03,30.91,248.03,30.91-1.39,1.98-3.66,3.15-6.08,3.15Z"/>
        <g>
          <polygon class="cls-11" points="352.55 494.97 342.36 494.97 505.07 284.45 515.26 284.45 352.55 494.97"/>
          <polygon class="cls-11" points="269.88 494.97 259.69 494.97 422.4 284.45 432.59 284.45 269.88 494.97"/>
          <polygon class="cls-11" points="353.96 284.45 191.25 494.97 181.06 494.97 343.76 284.45 353.96 284.45"/>
          <polygon class="cls-11" points="275.32 284.45 112.61 494.97 102.42 494.97 265.13 284.45 275.32 284.45"/>
        </g>
      </g>
    </g>
  </g>
  <g class="cls-30">
    <g>
      <g>
        <path class="cls-24" d="M68.18,504.2s-34.62-84.37,3.28-100.46c0,0,20.75-4.98,28.52,22.97,0,0,17.89-89.52,67.33-75.27,0,0,39.53,13.3-10.2,93.71,0,0,20.52-10.05,31.53,5.9,4.21,6.1,5.2,13.85,3.24,20.99-6.36,23.16-50.78,91.59-81.24,83.73-30.46-7.86-42.46-51.57-42.46-51.57Z"/>
        <path class="cls-12" d="M153.36,373.55c-32.36,41.79-46.15,98.3-37.07,150.33.61,3.47,1.31,6.92,2.06,10.34-3.31-55.62,8.72-111.53,35.01-160.67h0Z"/>
        <path class="cls-12" d="M176.99,462.69c-25.8,11.8-50.65,38.76-46.92,68.88,6.18-28.64,26.58-48.86,46.92-68.88h0Z"/>
        <path class="cls-12" d="M75.11,418.87c-6.59,40.07,6.04,82.96,30.85,114.77-16.53-36.43-28.02-74.74-30.85-114.77h0Z"/>
      </g>
      <g>
        <path class="cls-24" d="M-52.96,540.45s-65.03-63.94-36.52-93.64c0,0,17.12-12.75,35.26,9.9,0,0-18.79-89.34,32.28-95.69,0,0,41.58-3.33,27.5,90.16,0,0,14.91-17.31,31.3-6.98,6.27,3.95,10.23,10.68,11.24,18.02,3.27,23.79-10.64,104.18-41.74,108.94-31.1,4.76-59.33-30.7-59.33-30.7Z"/>
        <path class="cls-12" d="M-26.06,386.81c-13.31,51.15-3.74,108.53,25.08,152.79,1.93,2.95,3.93,5.84,5.96,8.7-24.93-49.83-35.87-105.96-31.04-161.49h0Z"/>
        <path class="cls-12" d="M30.74,459.47c-19.07,21-31.31,55.57-16.03,81.79-5.59-28.76,5.21-55.38,16.03-81.79h0Z"/>
      </g>
      <g>
        <path class="cls-12" d="M75.68,610.6s-11.55-111.55,38.74-117.36c0,0,26.21,1.33,25.67,37,0,0,52.18-99.4,105.56-65.42,0,0,42.02,29.42-44.56,107,0,0,27.69-4.73,35.14,17.9,2.85,8.65,1.33,18.14-3.47,25.88-15.54,25.11-91.7,90.41-124.9,70.57-33.2-19.85-32.18-75.57-32.18-75.57Z"/>
        <path class="cls-32" d="M221.53,486.05c-52.69,38.06-88.56,99.94-95.92,164.47-.48,4.31-.86,8.62-1.16,12.92,15.41-66.76,49.01-128.53,97.08-177.38h0Z"/>
        <path class="cls-32" d="M218.45,599.41c-34.53,4.97-73.2,28.14-79.26,64.96,17.23-31.64,48.32-48.41,79.26-64.96h0Z"/>
        <path class="cls-32" d="M113.48,512.35c-21.68,44.98-21.68,99.96-3.45,146.1-6.86-48.72-7.11-97.89,3.45-146.1h0Z"/>
      </g>
      <g>
        <path class="cls-12" d="M57.36,623.57s11.55-111.55-38.74-117.36c0,0-26.21,1.33-25.67,37,0,0-52.18-99.4-105.56-65.42,0,0-42.02,29.42,44.56,107,0,0-27.69-4.73-35.14,17.9-2.85,8.65-1.33,18.14,3.47,25.88,15.54,25.11,91.7,90.41,124.9,70.57,33.2-19.85,32.18-75.57,32.18-75.57Z"/>
        <path class="cls-32" d="M-88.49,499.02C-35.81,537.08.07,598.96,7.43,663.49c.48,4.31.86,8.62,1.16,12.92-15.41-66.76-49.01-128.53-97.08-177.38h0Z"/>
        <path class="cls-32" d="M19.55,525.33c21.68,44.98,21.68,99.95,3.45,146.1,6.86-48.72,7.11-97.89-3.45-146.1h0Z"/>
      </g>
      <g>
        <path class="cls-32" d="M129.68,648.66s42.57-103.75-4.04-123.53c0,0-25.52-6.13-35.07,28.25,0,0-21.99-110.08-82.79-92.55,0,0-48.61,16.36,12.54,115.23,0,0-25.23-12.35-38.77,7.25-5.17,7.5-6.4,17.03-3.98,25.81,7.82,28.47,62.44,112.62,99.9,102.96,37.46-9.67,52.21-63.41,52.21-63.41Z"/>
        <path class="cls-20" d="M24.93,487.99c39.8,51.39,56.75,120.88,45.59,184.86-.76,4.27-1.61,8.51-2.53,12.72,4.07-68.4-10.73-137.14-43.06-197.58h0Z"/>
        <path class="cls-20" d="M-4.12,597.61c31.72,14.51,62.28,47.66,57.7,84.7-7.59-35.22-32.69-60.08-57.7-84.7h0Z"/>
        <path class="cls-20" d="M121.15,543.73c8.1,49.27-7.42,102.01-37.94,141.13,20.33-44.8,34.46-91.9,37.94-141.13h0Z"/>
      </g>
      <g>
        <path class="cls-3" d="M-20.74,694.67h168.52v113.41c0,23.42-19.01,42.43-42.43,42.43H21.69c-23.42,0-42.43-19.01-42.43-42.43v-113.41h0Z"/>
        <polygon class="cls-38" points="147.78 730.41 147.78 694.67 -20.74 694.67 -20.74 740.85 147.78 730.41"/>
        <rect class="cls-16" x="-56.49" y="666.67" width="236.83" height="40.22" rx="20.1" ry="20.1"/>
      </g>
    </g>
  </g>
  <g>
    <path class="cls-1" d="M383.96,582.33c2.71-4.18,4.25-9.1,4.06-14.08-.12-3.13-.95-6.35-2.94-8.77-1.43-1.74-3.48-2.81-5.71-3.16-4.47-.7-5.68,1.98-7.35,4.98-.79,1.41-2.82,1.39-3.58-.03-.54-1.01-1.12-1.91-2.45-2.57-2.5-1.23-5.67-1.48-7.98.09-3.23,2.2-4.47,7.52-8.37,7.7-5.7.26-6.19-10.57-11.88-11.07-4.4-.39-6.97,6.03-11.39,6.02-4.28,0-7.59-6.13-11.52-4.45-2.08.89-2.75,3.52-4.47,4.99-3,2.57-7.61.69-10.92-1.46-3.32-2.15-7.4-4.59-10.93-2.81-2,1.01-3.15,3.1-4.55,4.84-1.41,1.74-3.63,3.29-5.74,2.57-3.01-1.04-3.54-5.88-6.66-6.5-3.15-.62-5.05,3.57-8.06,4.68-5.05,1.86-9.31-5.49-14.68-5.31-4.96.17-7.94,6.57-12.89,6.84-6.57.36-10.76-10.16-17.05-8.25-3.48,1.06-5.19,5.65-8.79,6.18-4.78.71-7.08-5.85-11.3-8.21-4.76-2.67-11.16,1.17-12.79,6.38s.26,10.89,2.94,15.64c0,0,3.67,5.77,3.91,5.98-6.59,11.97-58.57,111.17-64.99,272.88l45.48,19.21s148.1,26.75,268.31-2.63c0,0-6.36-226.91-57.67-289.7Z"/>
    <path class="cls-40" d="M388.02,568.26c-.12-3.13-.95-6.35-2.94-8.77-1.43-1.74-3.48-2.81-5.71-3.16-4.47-.7-5.68,1.98-7.35,4.98-.79,1.41-2.82,1.39-3.58-.03-.54-1.01-1.12-1.91-2.45-2.57-2.5-1.23-5.67-1.48-7.98.09-3.23,2.2-4.47,7.52-8.37,7.7-5.7.26-6.19-10.57-11.88-11.07-4.4-.39-6.97,6.03-11.39,6.02-4.28,0-7.59-6.13-11.52-4.45-2.08.89-2.75,3.52-4.47,4.99-3,2.57-7.61.69-10.92-1.46-3.32-2.15-7.4-4.59-10.93-2.81-2,1.01-3.15,3.1-4.55,4.84-1.41,1.74-3.63,3.29-5.74,2.57-3.01-1.04-3.54-5.88-6.66-6.5-3.15-.62-5.05,3.57-8.06,4.68-5.05,1.86-9.31-5.49-14.68-5.31-4.96.17-7.94,6.57-12.89,6.84-6.57.36-10.76-10.16-17.05-8.25-3.48,1.06-5.19,5.65-8.79,6.18-4.78.71-7.08-5.85-11.3-8.21-4.76-2.67-11.16,1.17-12.79,6.38s.26,10.89,2.94,15.64c0,0,3.67,5.77,3.91,5.98l191.12-.24c2.71-4.18,4.25-9.1,4.06-14.08Z"/>
    <path class="cls-40" d="M373.38,807.63c-22.92-7.03-47-9.53-70.96-10.33-18.75-.63-37.75-.28-55.96-4.81-14.08-3.51-27.31-10.16-38.75-19.06-10.22-7.95-19.04-17.69-25.93-28.65-3.44-5.47-6.39-11.25-8.79-17.25-2.13-5.34-4.81-9.12-10.92-5.88-5.82,3.09-9.23,10.39-12.44,15.82-3.92,6.62-7.41,13.5-10.36,20.61-.96,2.32-1.84,4.68-2.68,7.05-2.58,16.52-4.75,34.05-6.36,52.53,2.35,17.48,9.45,34.43,20.68,47.55l22.41,9.46s148.1,26.75,268.31-2.63c0,0-.21-7.58-.87-20.31-1.79-2.86-3.94-5.54-6.17-7.89-16.48-17.41-38.3-29.18-61.22-36.21Z"/>
    <path class="cls-5" d="M127.85,855.45l45.48,19.21c18.31-94.08,24.71-192.67,19.51-292.09-9.34,17.46-58.8,116.89-64.99,272.88Z"/>
    <g>
      <path class="cls-11" d="M329.09,773.58c.31-3.06-.62-6.12-1.85-8.94-.36-.82-.75-1.67-.66-2.56.11-1.03.88-1.89,1.77-2.42.89-.53,1.91-.8,2.88-1.14,2.75-.96,5.44-2.77,6.39-5.52.71-2.06.34-4.33-.32-6.4-.54-1.74-1.35-3.49-2.82-4.56-1.43-1.04-3.29-1.27-5.06-1.26-7.38.03-14.53,3.96-18.83,9.93l-36.1-16.37c1.65-7.17-.09-15.13-4.94-20.71-1.16-1.34-2.56-2.58-4.28-2.98-1.77-.41-3.62.15-5.29.88-1.99.88-3.94,2.1-5.03,3.98-1.45,2.53-1.03,5.74.05,8.45.39.96.86,1.9,1.04,2.92.19,1.02.05,2.16-.65,2.93-.6.66-1.51.92-2.35,1.19-2.94.93-5.85,2.25-7.95,4.5-2.1,2.25-3.24,5.59-2.22,8.5.9,2.57,3.29,4.36,5.8,5.41,4.03,1.69,8.68,1.82,12.81.38,2.78-.97,5.26-2.7,7.25-4.87l37.67,17.08c-.32,2.93.02,5.93,1.12,8.66,1.63,4.05,4.8,7.46,8.73,9.38,2.45,1.2,5.36,1.82,7.89.8,2.86-1.15,4.62-4.21,4.93-7.27Z"/>
      <path class="cls-31" d="M325.71,756.35c-1.13,1.52-1.99,3.23-3.14,4.73-1.15,1.5-2.69,2.83-4.55,3.18-2.63.49-5.14-1.06-7.52-2.27-3.68-1.88-7.71-3.03-11.82-3.49l7.74,3.51c-.32,2.93.02,5.93,1.12,8.66,1.63,4.05,4.8,7.46,8.73,9.38,2.45,1.2,5.36,1.82,7.89.8,2.86-1.15,4.62-4.21,4.93-7.27.31-3.06-.62-6.12-1.85-8.94-.36-.82-.75-1.67-.66-2.56.11-1.03.88-1.89,1.77-2.42.89-.53,1.91-.8,2.88-1.14,2.75-.96,5.44-2.77,6.39-5.52.36-1.06.44-2.17.34-3.29-4.77.4-9.4,2.77-12.25,6.63Z"/>
    </g>
    <g>
      <path class="cls-11" d="M383.51,686.92c-1.83-2.48-4.57-4.12-7.38-5.37-.81-.36-1.68-.73-2.2-1.45-.61-.84-.62-1.99-.31-2.98.3-.99.88-1.87,1.37-2.78,1.39-2.56,2.17-5.71,1.02-8.38-.86-2-2.66-3.43-4.54-4.53-1.57-.92-3.34-1.68-5.15-1.48-1.76.2-3.29,1.28-4.59,2.47-5.45,4.98-8.09,12.7-7.27,20.01l-37.73,12.15c-3.59-6.42-10.24-11.14-17.58-12.01-1.76-.21-3.63-.19-5.17.67-1.59.89-2.58,2.55-3.32,4.21-.88,1.99-1.51,4.2-1.04,6.33.63,2.85,3.09,4.95,5.72,6.22.93.45,1.91.83,2.74,1.46.82.63,1.49,1.57,1.48,2.6,0,.89-.49,1.69-.94,2.46-1.55,2.66-2.82,5.59-2.86,8.67-.04,3.08,1.36,6.32,4.07,7.78,2.4,1.3,5.37,1.02,7.93.1,4.12-1.46,7.66-4.49,9.74-8.33,1.41-2.59,2.08-5.53,2.1-8.48l39.37-12.68c1.73,2.38,4,4.38,6.65,5.66,3.93,1.9,8.57,2.3,12.77,1.08,2.62-.76,5.19-2.26,6.38-4.71,1.34-2.77.59-6.22-1.23-8.7Z"/>
      <path class="cls-31" d="M369.42,676.43c.19,1.88.7,3.73.86,5.61.16,1.89-.09,3.91-1.23,5.41-1.62,2.13-4.52,2.67-7.09,3.37-3.99,1.08-7.74,2.94-11.09,5.36l8.08-2.6c1.73,2.38,4,4.38,6.65,5.66,3.93,1.9,8.57,2.3,12.77,1.08,2.62-.76,5.19-2.26,6.38-4.71,1.34-2.77.59-6.22-1.23-8.7-1.83-2.48-4.57-4.12-7.38-5.37-.81-.36-1.68-.73-2.2-1.45-.61-.84-.62-1.99-.31-2.98.3-.99.88-1.87,1.37-2.78,1.39-2.56,2.17-5.71,1.02-8.38-.44-1.03-1.14-1.9-1.96-2.66-3.26,3.5-5.09,8.37-4.61,13.15Z"/>
    </g>
  </g>
  <g>
    <path class="cls-23" d="M562.32,838.7c-44.88-26.32-87.86-22.16-129.79-1.19l55.44,48.99,63.41-22.78,10.93-25.01Z"/>
    <g>
      <path class="cls-19" d="M547.2,836.17c-.09,0-.16.02-.25.03.15-.8.25-1.62.25-2.47,0-7.39-5.99-13.39-13.39-13.39-2.27,0-4.38.62-6.26,1.62-1.63-8.66-9.23-15.22-18.37-15.22-5.59,0-10.6,2.47-14.02,6.36-3.17-5.82-9.34-9.78-16.44-9.78-9.44,0-17.22,7-18.5,16.09-1.47-.56-3.05-.9-4.72-.9-7.39,0-13.39,5.99-13.39,13.39,0,1.63.33,3.17.87,4.62-5.98,1.34-10.46,6.66-10.46,13.04,0,7.39,5.99,13.39,13.39,13.39,2.34,0,4.51-.65,6.42-1.71h88.44c1.91,1.06,4.08,1.71,6.42,1.71,7.39,0,13.39-5.99,13.39-13.39s-5.99-13.39-13.39-13.39Z"/>
      <circle class="cls-29" cx="465.2" cy="846.88" r="12.16" transform="translate(-462.58 576.99) rotate(-45)"/>
      <circle class="cls-29" cx="488.23" cy="845.67" r="14.62"/>
    </g>
    <g>
      <path class="cls-28" d="M432.53,837.5c-7.39,13.94-13.29,26.77-13.73,42.82-.11,3.92,2.19,7.57,5.82,9.07,51.2,21.19,99.66,22.08,145.06.35,3.52-1.68,5.71-5.28,5.54-9.17-.75-17.46-3.63-29.29-12.9-41.88-41.59,18.04-85.31,18.45-129.79-1.19Z"/>
      <path class="cls-36" d="M575.22,880.58c-.57-13.08-2.32-23-7.07-32.45-1.49,3.1-3.37,6.02-5.55,8.67-5.19,6.32-11.88,11.24-18.87,15.49-32.08,19.49-72.15,25.37-108.48,15.9-4.99-1.3-10.25-2.81-15.37-3.21,1,1.95,2.63,3.55,4.73,4.42,51.2,21.19,99.66,22.08,145.06.35,3.52-1.68,5.71-5.28,5.54-9.17Z"/>
      <g>
        <path class="cls-11" d="M528.91,882.78c-.67-1.99-2.11-3.63-3.67-5.04-.45-.41-.94-.83-1.13-1.4-.22-.67.02-1.42.42-2s.96-1.03,1.47-1.52c1.44-1.37,2.6-3.25,2.41-5.24-.14-1.48-1.01-2.79-2-3.89-.83-.93-1.82-1.79-3.04-2.04-1.18-.24-2.41.14-3.5.64-4.58,2.1-7.92,6.56-8.91,11.48h-27.07c-.99-4.92-4.33-9.38-8.91-11.48-1.1-.5-2.32-.88-3.5-.64-1.22.25-2.21,1.11-3.04,2.04-.99,1.11-1.86,2.41-2,3.89-.19,1.98.98,3.86,2.41,5.24.51.49,1.07.94,1.47,1.52.4.58.64,1.33.42,2-.19.58-.68,1-1.13,1.4-1.56,1.4-3,3.05-3.67,5.04-.67,1.99-.44,4.39,1.02,5.91,1.29,1.34,3.27,1.78,5.13,1.73,2.98-.09,5.91-1.31,8.07-3.37,1.45-1.39,2.51-3.16,3.14-5.07h28.24c.63,1.91,1.68,3.68,3.14,5.07,2.16,2.06,5.09,3.29,8.07,3.37,1.86.06,3.85-.38,5.13-1.73,1.45-1.52,1.69-3.92,1.02-5.91Z"/>
        <path class="cls-31" d="M521.95,873.01c-.27,1.26-.32,2.57-.62,3.83-.29,1.26-.87,2.52-1.93,3.26-1.5,1.04-3.49.79-5.32.71-2.82-.13-5.65.29-8.33,1.16h5.8c.63,1.91,1.68,3.68,3.14,5.07,2.16,2.06,5.09,3.29,8.07,3.37,1.86.06,3.85-.38,5.13-1.73,1.45-1.52,1.69-3.92,1.02-5.91-.67-1.99-2.11-3.63-3.67-5.04-.45-.41-.94-.83-1.13-1.4-.22-.67.02-1.42.42-2s.96-1.03,1.47-1.52c1.44-1.37,2.6-3.25,2.41-5.24-.07-.76-.34-1.48-.72-2.14-2.85,1.59-5.06,4.37-5.75,7.58Z"/>
      </g>
    </g>
  </g>
  <g>
    <path class="cls-23" d="M1199.84,921.49c-50.97-29.9-99.79-25.17-147.41-1.36l62.97,55.64,72.03-25.88,12.42-28.4Z"/>
    <g>
      <path class="cls-16" d="M1068.67,918.62c.1,0,.19.03.28.03-.17-.91-.28-1.84-.28-2.8,0-8.4,6.81-15.2,15.2-15.2,2.58,0,4.98.7,7.11,1.84,1.85-9.84,10.48-17.29,20.86-17.29,6.35,0,12.04,2.8,15.93,7.22,3.6-6.61,10.61-11.1,18.67-11.1,10.72,0,19.56,7.95,21.01,18.27,1.67-.63,3.47-1.02,5.36-1.02,8.4,0,15.2,6.81,15.2,15.2,0,1.85-.38,3.6-.99,5.24,6.79,1.52,11.88,7.56,11.88,14.81,0,8.4-6.81,15.2-15.2,15.2-2.66,0-5.12-.74-7.29-1.94h-100.45c-2.17,1.2-4.63,1.94-7.29,1.94-8.4,0-15.2-6.81-15.2-15.2s6.81-15.2,15.2-15.2Z"/>
      <circle class="cls-26" cx="1161.81" cy="930.78" r="13.81"/>
      <circle class="cls-26" cx="1135.65" cy="929.41" r="16.61" transform="translate(-158.75 238.01) rotate(-11.19)"/>
    </g>
    <path class="cls-28" d="M1052.43,920.13c-8.4,15.84-15.09,30.4-15.59,48.63-.12,4.45,2.49,8.6,6.61,10.3,58.15,24.06,113.19,25.07,164.76.4,3.99-1.91,6.48-5.99,6.29-10.42-.86-19.83-4.12-33.27-14.65-47.57-47.24,20.49-96.9,20.95-147.41-1.36Z"/>
    <path class="cls-36" d="M1214.49,969.05c-.64-14.86-2.64-26.13-8.03-36.85-1.7,3.52-3.83,6.84-6.3,9.85-5.9,7.17-13.5,12.77-21.43,17.59-36.44,22.14-81.95,28.81-123.21,18.06-5.67-1.48-11.65-3.19-17.46-3.64,1.14,2.21,2.99,4.03,5.38,5.02,58.15,24.06,113.19,25.07,164.76.4,3.99-1.91,6.48-5.99,6.29-10.41Z"/>
    <g>
      <path class="cls-11" d="M1120.72,968.18c1.44-1.44,3.04-2.82,4.94-3.32,2.27-.6,4.7.14,6.7,1.47,2,1.33,3.64,3.19,5.25,5.04,1.37,1.56,2.77,3.19,3.45,5.22s.43,4.59-1.11,5.95c-1.3,1.14-3.15,1.17-4.78.79s-3.2-1.09-4.86-1.24c-2.28-.22-4.52.63-6.71,1.34-3.6,1.16-10.45,1.5-10.49-4.55-.01-1.94,1.58-3.48,2.63-4.85,1.57-2.04,3.17-4.03,4.97-5.83Z"/>
      <path class="cls-11" d="M1117.36,960.55c2.1,3.65,1.68,7.83-.95,9.35-2.63,1.52-6.47-.21-8.57-3.85-2.1-3.65-1.68-7.83.95-9.35,2.63-1.52,6.47.21,8.57,3.85Z"/>
      <path class="cls-11" d="M1127.48,951.83c1.03,4.08-.53,7.99-3.47,8.73-2.95.74-6.17-1.97-7.19-6.05-1.03-4.08.53-7.99,3.47-8.73,2.95-.74,6.17,1.97,7.19,6.05Z"/>
      <path class="cls-31" d="M1138.81,962.07c-2.1,3.65-1.68,7.83.95,9.35,2.63,1.52,6.47-.21,8.57-3.85,2.1-3.65,1.68-7.83-.95-9.35s-6.47.21-8.57,3.85Z"/>
      <path class="cls-11" d="M1129.94,951.83c-1.03,4.08.53,7.99,3.47,8.73,2.95.74,6.17-1.97,7.19-6.05,1.03-4.08-.53-7.99-3.47-8.73-2.95-.74-6.17,1.97-7.19,6.05Z"/>
      <path class="cls-31" d="M1141.07,976.58c-.68-2.03-2.08-3.66-3.45-5.22-.19-.21-.37-.42-.56-.63-1.69.85-3.48,1.53-5.38,2.08-4.68,1.34-9.54,1.87-14.33,2.73-1.1.2-2.24.45-3.35.76-.51.78-.88,1.63-.88,2.57.04,6.05,6.89,5.71,10.49,4.55,2.2-.71,4.43-1.55,6.71-1.34,1.66.16,3.23.87,4.86,1.24,1.63.37,3.48.35,4.78-.79,1.54-1.36,1.79-3.92,1.11-5.95Z"/>
    </g>
  </g>
  <g>
    <path class="cls-28" d="M70.72,759.04l32.95-.38c13.19-.15,23.97,7.76,24.08,17.66l1.68,146.63c.06,4.92-5.21,8.97-11.75,9.04l-56.99.65c-6.55.08-11.91-3.85-11.96-8.77l-1.68-146.62c-.11-9.91,10.49-18.06,23.67-18.21Z"/>
    <path class="cls-36" d="M60.69,932.65c-6.55.07-11.91-3.85-11.96-8.77h0s-1.68-146.62-1.68-146.62c-.01-1.19.13-2.35.41-3.47,6.42,15.2,11.96,51.87,16.88,65.39,6.7,18.38,13.93,36.89,25.74,52.48,9.94,13.12,23.64,24.07,39.32,28.48l.03,2.82c.02,2.15-.97,4.14-2.64,5.7-.48.45-1.01.86-1.59,1.23-.58.37-1.21.7-1.88.98-1.67.7-3.59,1.12-5.64,1.14l-56.99.65Z"/>
    <rect class="cls-11" x="47.69" y="803.85" width="80.71" height="58.9" transform="translate(-9.54 1.06) rotate(-.66)"/>
    <rect class="cls-7" x="47.69" y="812.03" width="80.71" height="42.28" transform="translate(-9.54 1.06) rotate(-.66)"/>
    <g>
      <rect class="cls-28" x="73.22" y="735.75" width="29.87" height="30.5" transform="translate(184.9 1500.93) rotate(179.34)"/>
      <g>
        <path class="cls-5" d="M69.16,729.19h37.98v20.08c0,.53-.43.96-.96.96h-36.04c-.53,0-.97-.43-.97-.97v-20.08h0Z" transform="translate(184.76 1478.37) rotate(179.34)"/>
        <path class="cls-36" d="M68.28,751h39.73c.48,0,.86-.39.86-.86h0c0-.48-.39-.86-.86-.86h-39.73c-.48,0-.86.39-.86.86h0c0,.48.39.86.86.86Z"/>
        <g>
          <path class="cls-36" d="M103.46,747.65c.24,0,.43-.19.43-.43v-15.51c0-.24-.19-.43-.43-.43s-.43.19-.43.43v15.51c0,.24.19.43.43.43Z"/>
          <path class="cls-36" d="M100.06,747.65c.24,0,.43-.19.43-.43v-15.51c0-.24-.19-.43-.43-.43s-.43.19-.43.43v15.51c0,.24.19.43.43.43Z"/>
          <path class="cls-36" d="M96.66,747.65c.24,0,.43-.19.43-.43v-15.51c0-.24-.19-.43-.43-.43s-.43.19-.43.43v15.51c0,.24.19.43.43.43Z"/>
          <path class="cls-36" d="M93.25,747.65c.24,0,.43-.19.43-.43v-15.51c0-.24-.19-.43-.43-.43s-.43.19-.43.43v15.51c0,.24.19.43.43.43Z"/>
          <path class="cls-36" d="M89.85,747.65c.24,0,.43-.19.43-.43v-15.51c0-.24-.19-.43-.43-.43s-.43.19-.43.43v15.51c0,.24.19.43.43.43Z"/>
          <path class="cls-36" d="M86.45,747.65c.24,0,.43-.19.43-.43v-15.51c0-.24-.19-.43-.43-.43s-.43.19-.43.43v15.51c0,.24.19.43.43.43Z"/>
          <path class="cls-36" d="M83.05,747.65c.24,0,.43-.19.43-.43v-15.51c0-.24-.19-.43-.43-.43s-.43.19-.43.43v15.51c0,.24.19.43.43.43Z"/>
          <path class="cls-36" d="M79.64,747.65c.24,0,.43-.19.43-.43v-15.51c0-.24-.19-.43-.43-.43s-.43.19-.43.43v15.51c0,.24.19.43.43.43Z"/>
          <path class="cls-36" d="M76.24,747.65c.24,0,.43-.19.43-.43v-15.51c0-.24-.19-.43-.43-.43s-.43.19-.43.43v15.51c0,.24.19.43.43.43Z"/>
          <path class="cls-36" d="M72.84,747.65c.24,0,.43-.19.43-.43v-15.51c0-.24-.19-.43-.43-.43s-.43.19-.43.43v15.51c0,.24.19.43.43.43Z"/>
        </g>
      </g>
    </g>
    <path class="cls-11" d="M121.12,800.84h.02c.94-.01,1.69-.78,1.68-1.72l-.21-18.27c-.05-4.4-2.34-8.48-6.44-11.49-3.95-2.9-9.16-4.46-14.65-4.4-.94.01-1.69.78-1.68,1.72.01.93.77,1.68,1.7,1.68h.02c4.76-.05,9.24,1.27,12.6,3.74,3.22,2.36,5.01,5.48,5.05,8.78l.21,18.27c.01.93.77,1.68,1.7,1.68Z"/>
    <g class="cls-22">
      <g>
        <path class="cls-21" d="M80.23,865.87s-10.36-.6-14.89-1.59c-2.14-.46-3.63-2.47-3.33-4.64.08-.57.26-1.2.58-1.9,0,0,.74-2.54,3.42-1.94,0,0,1.97.55.61,2.34,0,0-2.58,3.54.29,4.03l10.55.91,2.77,2.78Z"/>
        <g>
          <path class="cls-21" d="M96.5,862.05s2.23.53,1.71,2.68c0,0-.22,1.28-4.02.76,0,0-1.82-.16-1.56-2.2,0,0,.67-1.7,3.88-1.23Z"/>
          <path class="cls-21" d="M90.79,862.26s2.26.43,1.83,2.59c0,0-.16,1.28-3.98.95,0,0-1.82-.08-1.66-2.13,0,0,.59-1.73,3.81-1.42Z"/>
        </g>
        <path class="cls-21" d="M83.61,834.52s-11.63,6.85-13.51,14.9c0,0-3.98,11.79,8.98,16.23.82.28,1.68.39,2.55.35,2.21-.1,6.56-.41,6.84-1.4l8.7-.63.29-4.51s2.14-14.78.61-25.01l-14.45.07Z"/>
        <path class="cls-1" d="M79.69,837.22c2.21-1.69,3.92-2.7,3.92-2.7l14.45-.07c.16,1.08.28,2.22.37,3.38-5.33,2.86-14.03,2.07-18.74-.62Z"/>
        <g>
          <g>
            <path class="cls-6" d="M92.66,864.2s0,0,.01,0c.15,0,.27-.13.27-.29l-.71-18.38c0-.15-.13-.27-.29-.27-.15,0-.27.13-.27.29l.71,18.38c0,.15.13.27.28.27Z"/>
            <path class="cls-6" d="M91.66,845.82c2.68,0,4.44-1.41,4.46-1.43.12-.1.13-.27.04-.39-.1-.12-.27-.13-.39-.04-.13.11-3.36,2.67-7.81.34-.14-.07-.3-.02-.37.12-.07.13-.02.3.12.37,1.45.76,2.79,1.02,3.96,1.02Z"/>
          </g>
          <path class="cls-6" d="M87.5,865.23s0,0,.01,0c.15,0,.27-.14.26-.29l-.47-10.22c0-.16.09-4.32-2.36-6.16-1.26-.95-2.94-1.09-4.99-.44-.15.05-.23.2-.18.35.05.15.2.23.35.18,1.88-.59,3.39-.47,4.49.36,2.22,1.67,2.14,5.69,2.14,5.73l.47,10.24c0,.15.13.26.28.26Z"/>
        </g>
        <g>
          <path class="cls-21" d="M77.27,828.46c.29,6.36,6.44,9.35,13.85,9.02,7.41-.34,13.26-3.88,12.97-10.24-.29-6.36-6.53-11.25-13.94-10.91-7.41.34-13.17,5.77-12.88,12.13Z"/>
          <g>
            <path class="cls-25" d="M93.81,824.34c.06,1.35.96,2.41,2,2.36,1.04-.05,1.84-1.18,1.78-2.53-.06-1.35-.96-2.41-2-2.36-1.04.05-1.84,1.18-1.78,2.53Z"/>
            <path class="cls-10" d="M94.44,823.68c.03.55.35.98.72.96.37-.02.65-.48.63-1.02-.03-.55-.35-.98-.72-.96-.37.02-.65.48-.63,1.02Z"/>
          </g>
          <g>
            <path class="cls-25" d="M84.18,824.34c.06,1.35.96,2.41,2,2.36,1.04-.05,1.84-1.18,1.78-2.53-.06-1.35-.96-2.41-2-2.36-1.04.05-1.84,1.18-1.78,2.53Z"/>
            <path class="cls-10" d="M84.81,823.68c.03.55.35.98.72.96.37-.02.65-.48.63-1.02-.03-.55-.35-.98-.72-.96-.37.02-.65.48-.63,1.02Z"/>
          </g>
          <g>
            <path class="cls-21" d="M93.7,817.23c1.07-.67,2.34-1.67,3.5-3.12.49-.61,1.42-.59,1.9.03,1.01,1.33,2.44,3.61,2.78,6.19.12.9-.75,1.61-1.61,1.31l-6.33-2.25c-.95-.34-1.1-1.63-.24-2.16Z"/>
            <path class="cls-6" d="M95.62,817.3c.54-.34,1.18-.85,1.77-1.58.25-.31.72-.3.96.02.51.67,1.24,1.83,1.41,3.13.06.46-.38.82-.81.66l-3.2-1.14c-.48-.17-.56-.82-.12-1.1Z"/>
          </g>
          <g>
            <path class="cls-21" d="M85.8,817.22c-1.38-.6-3-1.42-3.98-2.28-.55-.49-1.42-.35-1.81.27-.87,1.4-2.01,3.7-2.05,6.2-.01.91.94,1.52,1.76,1.11l6.14-3.11c.92-.46.88-1.78-.06-2.19Z"/>
            <path class="cls-6" d="M83.62,817.95c-.58-.27-1.28-.69-1.96-1.34-.29-.27-.75-.2-.95.14-.42.73-1,1.97-1,3.28,0,.46.48.76.89.55l3.03-1.53c.46-.23.45-.89-.02-1.1Z"/>
          </g>
          <path class="cls-25" d="M89.9,828.79l1.67-.08c.4-.02.62.45.35.75l-.8.88c-.17.19-.46.2-.64.03l-.87-.81c-.29-.27-.12-.76.28-.78Z"/>
          <g>
            <path class="cls-25" d="M90.91,832.78s0,0,0,0c.1,0,.17-.09.17-.19l-.13-2.87c0-.1-.08-.17-.19-.17-.1,0-.17.09-.17.19l.13,2.87c0,.1.08.17.18.17Z"/>
            <path class="cls-25" d="M90.69,832.78c1.07,0,2.34-.33,3.67-1.37.08-.06.09-.17.03-.25-.06-.08-.17-.09-.25-.03-3.47,2.71-6.33.41-6.45.31-.08-.06-.19-.05-.25.02-.06.08-.05.19.02.25.02.02,1.33,1.07,3.23,1.07Z"/>
          </g>
        </g>
        <g>
          <path class="cls-6" d="M96.62,830.05s.02,0,.03,0l7.74-2.46c.05-.02.08-.08.07-.13-.02-.05-.08-.08-.13-.07l-7.74,2.46c-.05.02-.08.08-.07.13.01.04.05.07.1.07Z"/>
          <path class="cls-6" d="M96.94,831.27s0,0,.01,0l8.07-.87c.06,0,.1-.06.09-.11,0-.06-.06-.1-.11-.09l-8.07.87c-.06,0-.1.06-.09.11,0,.05.05.09.1.09Z"/>
          <path class="cls-6" d="M105,833.64c.05,0,.09-.04.1-.09,0-.06-.03-.11-.09-.12l-8.04-1.17c-.05,0-.11.03-.12.09,0,.06.03.11.09.12l8.04,1.17s0,0,.02,0Z"/>
          <path class="cls-6" d="M85.26,830.1c.05,0,.09-.04.1-.09,0-.06-.03-.11-.09-.12l-8.03-1.21c-.06,0-.11.03-.12.09,0,.06.03.11.09.12l8.03,1.21s.01,0,.02,0Z"/>
          <path class="cls-6" d="M77.02,831.78s0,0,0,0l8.11-.42c.06,0,.1-.05.1-.11,0-.06-.05-.1-.11-.1l-8.11.42c-.06,0-.1.05-.1.11,0,.06.05.1.1.1Z"/>
          <path class="cls-6" d="M77.55,834.97s.02,0,.03,0l7.75-2.42c.05-.02.08-.08.07-.13-.02-.05-.07-.09-.13-.07l-7.75,2.42c-.05.02-.08.08-.07.13.01.04.05.07.1.07Z"/>
        </g>
        <path class="cls-19" d="M93.92,840.59c.05,1.24-.91,2.29-2.15,2.35-1.24.05-2.29-.91-2.35-2.15-.05-1.24.91-2.29,2.15-2.35,1.24-.05,2.29.91,2.35,2.15Z"/>
        <path class="cls-4" d="M93.35,840.79s0,0,0,0c.1,0,.17-.09.17-.18-.02-.5-.24-.95-.6-1.29-.37-.34-.84-.51-1.34-.49-.1,0-.17.09-.17.18,0,.1.09.17.18.17.83-.03,1.54.61,1.57,1.44,0,.09.08.17.17.17Z"/>
      </g>
    </g>
  </g>
  <g>
    <path class="cls-21" d="M873.26,987.82s-73.48-4.29-105.62-11.26c-15.19-3.3-25.77-17.55-23.61-32.94.57-4.05,1.84-8.53,4.09-13.45,0,0,5.24-18.05,24.24-13.78,0,0,13.95,3.9,4.3,16.63,0,0-18.28,25.15,2.08,28.62l74.88,6.46,19.65,19.73Z"/>
    <g>
      <path class="cls-21" d="M988.7,960.68s15.85,3.77,12.11,18.99c0,0-1.56,9.05-28.56,5.4,0,0-12.88-1.16-11.06-15.62,0,0,4.74-12.06,27.5-8.76Z"/>
      <path class="cls-21" d="M948.18,962.17s16.01,3.02,12.99,18.39c0,0-1.13,9.11-28.27,6.74,0,0-12.92-.55-11.78-15.08,0,0,4.16-12.27,27.06-10.05Z"/>
    </g>
    <path class="cls-21" d="M897.22,765.38s-82.54,48.57-95.89,105.76c0,0-28.27,83.69,63.72,115.13,5.81,1.98,11.94,2.78,18.08,2.51,15.71-.69,46.56-2.94,48.55-9.9l61.71-4.51,2.06-32.02s15.19-104.87,4.32-177.46l-102.55.49Z"/>
    <path class="cls-1" d="M869.42,784.52c15.68-12,27.8-19.14,27.8-19.14l102.55-.49c1.15,7.69,2.01,15.75,2.63,24.01-37.85,20.28-99.56,14.67-132.97-4.38Z"/>
    <g>
      <g>
        <path class="cls-6" d="M961.44,975.95s.05,0,.08,0c1.08-.04,1.92-.95,1.88-2.03l-5.04-130.39c-.04-1.08-.95-1.92-2.03-1.88-1.08.04-1.92.95-1.88,2.03l5.04,130.39c.04,1.06.91,1.88,1.96,1.88Z"/>
        <path class="cls-6" d="M954.38,845.54c19.05,0,31.5-9.98,31.68-10.12.83-.69.96-1.92.27-2.75-.68-.84-1.92-.96-2.75-.28-.96.78-23.83,18.96-55.45,2.42-.96-.51-2.14-.13-2.64.83-.5.96-.13,2.14.83,2.64,10.29,5.38,19.8,7.26,28.07,7.26Z"/>
      </g>
      <path class="cls-6" d="M924.83,983.24s.06,0,.09,0c1.08-.05,1.92-.97,1.87-2.05l-3.32-72.52c.03-1.11.61-30.65-16.75-43.72-8.91-6.71-20.83-7.76-35.43-3.15-1.03.33-1.6,1.43-1.28,2.46.32,1.03,1.42,1.61,2.46,1.28,13.32-4.22,24.05-3.36,31.89,2.54,15.76,11.87,15.2,40.34,15.2,40.63l3.32,72.66c.05,1.05.91,1.87,1.95,1.87Z"/>
    </g>
    <g>
      <path class="cls-21" d="M852.25,722.34c2.07,45.14,45.73,66.38,98.28,63.97,52.55-2.41,94.09-27.54,92.03-72.68-2.07-45.14-46.34-79.79-98.9-77.38-52.55,2.41-93.48,40.95-91.41,86.1Z"/>
      <g>
        <path class="cls-25" d="M969.62,693.14c.44,9.58,6.79,17.08,14.19,16.74,7.4-.34,13.04-8.38,12.6-17.96-.44-9.58-6.79-17.08-14.19-16.74-7.4.34-13.04,8.38-12.6,17.96Z"/>
        <path class="cls-10" d="M974.13,688.42c.18,3.89,2.46,6.95,5.09,6.83,2.63-.12,4.63-3.38,4.45-7.27-.18-3.89-2.46-6.95-5.09-6.83-2.63.12-4.63,3.38-4.45,7.27Z"/>
      </g>
      <g>
        <path class="cls-25" d="M901.29,693.14c.44,9.58,6.79,17.08,14.19,16.74,7.4-.34,13.04-8.38,12.6-17.96-.44-9.58-6.79-17.08-14.19-16.74-7.4.34-13.04,8.38-12.6,17.96Z"/>
        <path class="cls-10" d="M905.79,688.42c.18,3.89,2.46,6.95,5.09,6.83,2.63-.12,4.63-3.38,4.45-7.27-.18-3.89-2.46-6.95-5.09-6.83-2.63.12-4.63,3.38-4.45,7.27Z"/>
      </g>
      <g>
        <path class="cls-21" d="M968.86,642.69c7.58-4.76,16.58-11.86,24.86-22.11,3.48-4.31,10.11-4.16,13.46.24,7.17,9.42,17.34,25.59,19.7,43.89.82,6.39-5.32,11.44-11.4,9.28l-44.91-15.94c-6.76-2.4-7.79-11.54-1.71-15.36Z"/>
        <path class="cls-6" d="M982.49,643.14c3.84-2.41,8.4-6.01,12.59-11.2,1.76-2.18,5.12-2.11,6.82.12,3.63,4.77,8.78,12.96,9.97,22.22.42,3.24-2.69,5.79-5.77,4.7l-22.74-8.07c-3.42-1.22-3.94-5.84-.87-7.78Z"/>
      </g>
      <g>
        <path class="cls-21" d="M912.76,642.61c-9.77-4.25-21.31-10.04-28.24-16.15-3.92-3.46-10.06-2.5-12.83,1.94-6.19,9.91-14.29,26.23-14.55,43.96-.09,6.49,6.69,10.78,12.48,7.86l43.59-22.04c6.5-3.29,6.22-12.65-.46-15.55Z"/>
        <path class="cls-6" d="M897.35,647.77c-4.11-1.91-9.09-4.89-13.9-9.51-2.02-1.94-5.34-1.44-6.75.99-3,5.19-7.07,13.97-7.08,23.31,0,3.26,3.41,5.41,6.32,3.93l21.53-10.89c3.24-1.64,3.17-6.3-.12-7.82Z"/>
      </g>
      <path class="cls-25" d="M941.86,724.69l11.86-.54c2.84-.13,4.42,3.23,2.52,5.33l-5.66,6.26c-1.19,1.32-3.23,1.41-4.54.21l-6.21-5.72c-2.09-1.92-.82-5.41,2.02-5.54Z"/>
      <g>
        <path class="cls-25" d="M949.05,753s.04,0,.06,0c.7-.03,1.24-.62,1.21-1.32l-.93-20.33c-.03-.7-.56-1.22-1.32-1.21-.7.03-1.24.62-1.21,1.32l.93,20.33c.03.68.59,1.21,1.26,1.21Z"/>
        <path class="cls-25" d="M947.52,752.98c7.61,0,16.57-2.36,26.03-9.73.55-.43.65-1.23.22-1.78-.43-.55-1.22-.65-1.78-.22-24.62,19.2-44.93,2.9-45.78,2.19-.53-.44-1.33-.37-1.78.17-.44.54-.37,1.33.17,1.78.14.12,9.4,7.59,22.93,7.59Z"/>
      </g>
    </g>
    <g>
      <path class="cls-6" d="M989.54,733.61c.07,0,.15-.01.22-.03l54.9-17.48c.39-.12.6-.54.48-.92-.12-.39-.54-.59-.92-.48l-54.9,17.48c-.39.12-.6.54-.48.92.1.31.39.51.7.51Z"/>
      <path class="cls-6" d="M991.85,742.3s.05,0,.08,0l57.29-6.14c.4-.04.7-.41.65-.81-.04-.4-.43-.68-.81-.65l-57.29,6.14c-.4.04-.7.41-.65.81.04.38.36.66.73.66Z"/>
      <path class="cls-6" d="M1049,759.1c.36,0,.67-.26.73-.63.06-.4-.22-.77-.62-.83l-57.02-8.28c-.38-.05-.77.22-.83.62-.06.4.22.77.62.83l57.02,8.28s.07,0,.11,0Z"/>
      <path class="cls-6" d="M908.93,734.03c.36,0,.67-.26.73-.62.06-.4-.22-.78-.62-.84l-56.97-8.61c-.42-.05-.78.22-.84.62-.06.4.22.78.62.84l56.97,8.61s.07,0,.11,0Z"/>
      <path class="cls-6" d="M850.48,745.94s.02,0,.04,0l57.54-2.96c.41-.02.72-.37.7-.77-.02-.4-.37-.73-.77-.69l-57.54,2.96c-.41.02-.72.37-.7.77.02.39.35.7.73.7Z"/>
      <path class="cls-6" d="M854.23,768.57c.07,0,.15,0,.22-.03l55-17.17c.39-.12.6-.53.48-.92-.12-.39-.52-.61-.92-.48l-55,17.17c-.39.12-.6.53-.48.92.1.31.39.52.7.52Z"/>
    </g>
    <circle class="cls-19" cx="954.44" cy="809.14" r="15.96" transform="translate(-64.29 1535.66) rotate(-75.79)"/>
    <path class="cls-4" d="M966.37,809.86s.04,0,.06,0c.69-.03,1.22-.61,1.19-1.3-.15-3.52-1.67-6.77-4.26-9.15-2.6-2.38-5.95-3.61-9.48-3.45-.69.03-1.22.61-1.19,1.3.03.69.62,1.2,1.3,1.19,5.89-.24,10.9,4.33,11.15,10.22.03.67.58,1.19,1.24,1.19Z"/>
  </g>
  <g>
    <path class="cls-11" d="M160.19,951.47c4.87,0,47.56-.3,47.56-10.87,0-2.72-2.27-4.02-16.32-4.99-8.25-.57-19.35-.89-31.24-.89s-22.99.32-31.24.89c-14.05.97-16.32,2.27-16.32,4.99,0,10.56,42.69,10.87,47.56,10.87ZM201.66,941.45c-4.53,2.31-19.05,5.31-41.47,5.31s-36.94-3-41.47-5.31c5.43-1.06,20.14-2.02,41.47-2.02s36.04.96,41.47,2.02Z"/>
    <path class="cls-9" d="M205.39,823.5v114.14c0,6.77-20.24,9.13-45.21,9.13s-45.2-2.35-45.2-9.13v-114.14h90.41Z"/>
    <path class="cls-19" d="M114.98,937.64v-109.52c7.49,21.85,15.34,43.91,28.81,62.65,15.08,20.98,37.07,36.83,61.6,44.86v2.01c0,6.77-20.24,9.13-45.21,9.13s-45.2-2.35-45.2-9.13Z"/>
    <circle class="cls-11" cx="158.6" cy="890.36" r="27.25" transform="translate(-583.13 372.93) rotate(-45)"/>
    <path class="cls-25" d="M166,882.77s-4.51-3.81-15.15-1.22c0,0-7.16-7.94-10.23-4.75-3.07,3.19,1.16,13.48,1.16,13.48,0,0-2.09,17.1,15.87,17.02,17.96-.08,17.69-17.8,17.69-17.8,0,0,4.99-10.05.4-12.37-4.59-2.32-9.75,5.64-9.75,5.64Z"/>
    <path class="cls-11" d="M160.19,836.95c4.87,0,47.56-.3,47.56-10.87,0-2.72-2.27-4.02-16.32-4.99-8.25-.57-19.35-.89-31.24-.89s-22.99.32-31.24.89c-14.05.97-16.32,2.27-16.32,4.99,0,10.56,42.69,10.87,47.56,10.87ZM201.66,826.93c-4.53,2.31-19.05,5.31-41.47,5.31s-36.94-3-41.47-5.31c5.43-1.06,20.14-2.02,41.47-2.02s36.04.96,41.47,2.02Z"/>
    <ellipse class="cls-31" cx="160.19" cy="823.73" rx="45.2" ry="8.51"/>
  </g>
  <g>
    <circle class="cls-19" cx="583.46" cy="958.84" r="35.74"/>
    <path class="cls-15" d="M593.66,984.38c-16.92,0-30.64-13.72-30.64-30.64,0-15.25,11.15-27.9,25.74-30.24-1.73-.26-3.5-.39-5.31-.39-19.74,0-35.74,16-35.74,35.74s16,35.74,35.74,35.74c13.61,0,25.44-7.61,31.47-18.8-5.51,5.32-13,8.59-21.27,8.59Z"/>
    <path class="cls-9" d="M618.25,950.67c.61,2.63.95,5.36.95,8.17,0,4.31-.76,8.44-2.16,12.27-21.63-2.61-44.07-2.77-67.3-.45-1.3-3.7-2.01-7.68-2.01-11.82,0-3.09.39-6.09,1.13-8.95,22.5-1.98,45.66-1.61,69.39.78Z"/>
    <path class="cls-11" d="M582.14,929.27c16.94,0,30.72,13.78,30.72,30.72,0,1.28-1.04,2.32-2.32,2.32s-2.32-1.04-2.32-2.32c0-14.38-11.7-26.08-26.08-26.08-1.28,0-2.32-1.04-2.32-2.32s1.04-2.32,2.32-2.32Z"/>
  </g>
  <g>
    <circle class="cls-19" cx="1102.4" cy="800.23" r="21.63"/>
    <path class="cls-15" d="M1096.22,815.69c10.24,0,18.55-8.3,18.55-18.55,0-9.23-6.75-16.89-15.58-18.31,1.05-.16,2.12-.24,3.21-.24,11.95,0,21.63,9.69,21.63,21.63s-9.69,21.63-21.63,21.63c-8.24,0-15.4-4.6-19.05-11.38,3.34,3.22,7.87,5.2,12.87,5.2Z"/>
    <path class="cls-9" d="M1081.34,795.28c-.37,1.59-.58,3.24-.58,4.95,0,2.61.46,5.11,1.31,7.43,13.1-1.58,26.68-1.67,40.74-.27.79-2.24,1.22-4.65,1.22-7.16,0-1.87-.24-3.69-.69-5.42-13.62-1.2-27.64-.97-42.01.47Z"/>
    <path class="cls-11" d="M1103.2,782.33c-10.25,0-18.6,8.34-18.6,18.6,0,.78.63,1.4,1.4,1.4s1.4-.63,1.4-1.4c0-8.71,7.08-15.79,15.79-15.79.78,0,1.4-.63,1.4-1.4s-.63-1.4-1.4-1.4Z"/>
  </g>
  <g>
    <path class="cls-11" d="M180.3,905.67c0,4.87.3,47.56,10.87,47.56,2.72,0,4.02-2.27,4.99-16.32.57-8.25.89-19.35.89-31.24s-.32-22.99-.89-31.24c-.97-14.05-2.27-16.32-4.99-16.32-10.56,0-10.87,42.69-10.87,47.56ZM190.32,947.14c-2.31-4.53-5.31-19.05-5.31-41.47s3-36.94,5.31-41.47c1.06,5.43,2.02,20.14,2.02,41.47s-.96,36.04-2.02,41.47Z"/>
    <path class="cls-9" d="M308.28,950.87h-114.14c-6.77,0-9.13-20.24-9.13-45.21s2.35-45.2,9.13-45.2h114.14v90.41Z"/>
    <path class="cls-19" d="M194.14,860.46h109.52c-21.85,7.49-43.91,15.34-62.65,28.81-20.98,15.08-36.83,37.07-44.86,61.6h-2.01c-6.77,0-9.13-20.24-9.13-45.21s2.35-45.2,9.13-45.2Z"/>
    <circle class="cls-11" cx="241.42" cy="904.08" r="27.25"/>
    <path class="cls-25" d="M249,911.48s3.81-4.51,1.22-15.15c0,0,7.94-7.16,4.75-10.23-3.19-3.07-13.48,1.16-13.48,1.16,0,0-17.1-2.09-17.02,15.87.08,17.96,17.8,17.69,17.8,17.69,0,0,10.05,4.99,12.37.4,2.32-4.59-5.64-9.75-5.64-9.75Z"/>
    <path class="cls-11" d="M294.82,905.67c0,4.87.3,47.56,10.87,47.56,2.72,0,4.02-2.27,4.99-16.32.57-8.25.89-19.35.89-31.24s-.32-22.99-.89-31.24c-.97-14.05-2.27-16.32-4.99-16.32-10.56,0-10.87,42.69-10.87,47.56ZM304.84,947.14c-2.31-4.53-5.31-19.05-5.31-41.47s3-36.94,5.31-41.47c1.06,5.43,2.02,20.14,2.02,41.47s-.96,36.04-2.02,41.47Z"/>
    <ellipse class="cls-31" cx="308.04" cy="905.67" rx="8.51" ry="45.2"/>
  </g>
  <g>
    <polygon class="cls-8" points="104.39 92.05 91.79 97.09 88.55 111.86 85.67 95.65 74.51 89.53 86.75 89.53 89.45 75.13 92.87 87.73 104.39 92.05"/>
    <polygon class="cls-8" points="129.57 276.56 116.97 281.6 113.73 296.36 110.85 280.16 99.69 274.04 111.93 274.04 114.63 259.64 118.05 272.24 129.57 276.56"/>
    <polygon class="cls-8" points="119.53 383.22 109.94 387.06 107.47 398.29 105.28 385.96 96.78 381.3 106.1 381.3 108.15 370.34 110.76 379.93 119.53 383.22"/>
    <polygon class="cls-8" points="855.33 130.16 845.5 134.09 842.98 145.6 840.73 132.96 832.03 128.19 841.57 128.19 843.68 116.96 846.35 126.79 855.33 130.16"/>
    <polygon class="cls-8" points="1212.04 33.91 1202.44 37.75 1199.98 48.98 1197.79 36.65 1189.29 31.99 1198.61 31.99 1200.66 21.03 1203.27 30.62 1212.04 33.91"/>
    <polygon class="cls-8" points="958.59 157.16 949 160.99 946.53 172.23 944.34 159.9 935.84 155.24 945.16 155.24 947.22 144.28 949.82 153.87 958.59 157.16"/>
    <polygon class="cls-8" points="226.14 205.84 235.73 209.67 238.2 220.91 240.39 208.58 248.88 203.92 239.57 203.92 237.51 192.96 234.91 202.55 226.14 205.84"/>
    <polygon class="cls-8" points="1061.14 33.91 1051.55 37.75 1049.08 48.98 1046.89 36.65 1038.4 31.99 1047.71 31.99 1049.77 21.03 1052.37 30.62 1061.14 33.91"/>
  </g>
</svg>