<?xml version="1.0" encoding="UTF-8"?>
<svg xmlns="http://www.w3.org/2000/svg" xmlns:xlink="http://www.w3.org/1999/xlink" viewBox="0 0 1254.29 1080">
  <defs>
    <style>
      .cls-1 {
        fill: #e5b56c;
      }

      .cls-2 {
        fill: #518a81;
      }

      .cls-3 {
        fill: #cff6f1;
      }

      .cls-4 {
        clip-path: url(#clippath-4);
      }

      .cls-5 {
        fill: #8e5b58;
      }

      .cls-6 {
        fill: #fff8ff;
      }

      .cls-7 {
        fill: #497e78;
      }

      .cls-8 {
        fill: #c19650;
      }

      .cls-9 {
        fill: #f8c69c;
      }

      .cls-10 {
        fill: #fff;
      }

      .cls-11 {
        fill: #f5d95c;
      }

      .cls-12 {
        fill: #faf7f2;
      }

      .cls-13 {
        fill: #86d07b;
      }

      .cls-14, .cls-15 {
        fill: none;
      }

      .cls-16 {
        fill: #e2ac13;
      }

      .cls-17 {
        fill: #a06561;
      }

      .cls-18 {
        clip-path: url(#clippath-1);
      }

      .cls-19 {
        fill: #e3fcff;
      }

      .cls-20 {
        fill: #e8b513;
      }

      .cls-21 {
        fill: #5ea550;
      }

      .cls-22 {
        fill: #4d361e;
      }

      .cls-23 {
        clip-path: url(#clippath-3);
      }

      .cls-24 {
        fill: #4f8b7f;
      }

      .cls-25 {
        fill: #b5ee79;
      }

      .cls-26 {
        fill: #723f43;
      }

      .cls-27 {
        fill: #2a1a0a;
      }

      .cls-28 {
        fill: #683a3e;
        opacity: .2;
      }

      .cls-15 {
        stroke: #895557;
        stroke-linecap: round;
        stroke-linejoin: round;
        stroke-width: 1.01px;
      }

      .cls-29 {
        fill: #6cd6b2;
      }

      .cls-30 {
        fill: #f9c430;
      }

      .cls-31 {
        clip-path: url(#clippath-2);
      }

      .cls-32 {
        fill: #eae5df;
      }

      .cls-33 {
        fill: #6fb762;
      }

      .cls-34 {
        fill: #bae0db;
      }

      .cls-35 {
        fill: #bc8382;
      }

      .cls-36 {
        fill: #6cbba5;
      }

      .cls-37 {
        clip-path: url(#clippath);
      }

      .cls-38 {
        fill: #895557;
      }

      .cls-39 {
        fill: #5b2e33;
      }

      .cls-40 {
        fill: #72bbaa;
      }
    </style>
    <clipPath id="clippath">
      <rect class="cls-14" x="-824.51" y="-.45" width="2079.32" height="1088.38"/>
    </clipPath>
    <clipPath id="clippath-1">
      <rect class="cls-14" x="-824.51" y="-.45" width="2079.32" height="1088.38"/>
    </clipPath>
    <clipPath id="clippath-2">
      <rect class="cls-14" x="-824.51" y="-.45" width="2079.32" height="1088.38"/>
    </clipPath>
    <clipPath id="clippath-3">
      <rect class="cls-14" x="-824.51" y="-.45" width="2079.32" height="1088.38"/>
    </clipPath>
    <clipPath id="clippath-4">
      <rect class="cls-14" x="-824.51" y="-.45" width="2079.32" height="1088.38"/>
    </clipPath>
  </defs>
  <g id="BACKGROUND">
    <rect class="cls-19" x="-824.51" y="-.45" width="2079.32" height="1088.38"/>
  </g>
  <g id="OBJECTS">
    <g class="cls-37">
      <path class="cls-3" d="M-899.64,850.63c107.16-269.34,725.18,267.06,1015.66,32.61C449.33,614.23,914.07,151.21,1448.85,491.86c534.78,340.66-170.24,763-477.29,752.03-307.05-10.97-1886.71,87.76-1919.62-52.11-32.91-139.87,48.43-341.15,48.43-341.15Z"/>
    </g>
    <g>
      <polygon class="cls-10" points="985.73 1030.11 970.96 1036.02 967.16 1053.31 963.79 1034.33 950.71 1027.16 965.05 1027.16 968.22 1010.28 972.23 1025.05 985.73 1030.11"/>
      <polygon class="cls-10" points="793.08 988.1 778.31 994.01 774.51 1011.31 771.14 992.32 758.06 985.15 772.4 985.15 775.57 968.27 779.58 983.04 793.08 988.1"/>
      <polygon class="cls-10" points="1202.19 1021.67 1190.95 1026.17 1188.06 1039.33 1185.49 1024.88 1175.53 1019.42 1186.45 1019.42 1188.86 1006.58 1191.91 1017.82 1202.19 1021.67"/>
      <polygon class="cls-10" points="914.01 435.83 897 442.63 892.63 462.55 888.74 440.69 873.68 432.43 890.2 432.43 893.85 412.99 898.46 430 914.01 435.83"/>
      <polygon class="cls-10" points="842.8 471.25 829.86 476.43 826.53 491.59 823.57 474.95 812.11 468.67 824.68 468.67 827.46 453.87 830.97 466.82 842.8 471.25"/>
      <polygon class="cls-10" points="409.36 711.27 394.59 717.18 390.79 734.48 387.42 715.49 374.34 708.32 388.68 708.32 391.85 691.44 395.86 706.21 409.36 711.27"/>
      <polygon class="cls-10" points="630.99 900.38 616.22 906.29 612.43 923.59 609.05 904.6 595.97 897.43 610.32 897.43 613.48 880.55 617.49 895.32 630.99 900.38"/>
      <polygon class="cls-10" points="505.02 914.97 493.78 919.47 490.89 932.64 488.32 918.19 478.36 912.73 489.28 912.73 491.69 899.88 494.74 911.12 505.02 914.97"/>
      <polygon class="cls-10" points="273.34 1022.02 256.34 1028.82 251.97 1048.74 248.08 1026.88 233.02 1018.62 249.54 1018.62 253.18 999.18 257.8 1016.19 273.34 1022.02"/>
      <polygon class="cls-10" points="116.24 954.34 103.3 959.52 99.97 974.68 97.01 958.04 85.55 951.75 98.12 951.75 100.9 936.96 104.41 949.9 116.24 954.34"/>
      <polygon class="cls-10" points="48.79 1054.07 37.55 1058.56 34.66 1071.73 32.09 1057.28 22.14 1051.82 33.06 1051.82 35.46 1038.98 38.52 1050.22 48.79 1054.07"/>
    </g>
    <g class="cls-18">
      <g>
        <g>
          <g>
            <circle class="cls-3" cx="1042.81" cy="175.11" r="119.47"/>
            <path class="cls-34" d="M1095.38,250.53c-55.09,12.81-110.14-21.46-122.95-76.55-11.55-49.66,15.17-99.27,60.9-117.96-5.83.47-11.71,1.37-17.58,2.73-64.26,14.95-104.24,79.16-89.29,143.42,14.95,64.26,79.16,104.24,143.42,89.29,44.3-10.3,77.06-44.03,88.24-85.03-13.91,21.49-35.83,37.83-62.73,44.09Z"/>
            <path class="cls-2" d="M1149.89,122.16c3.99,8.09,7.15,16.73,9.28,25.89,3.27,14.04,3.91,28.07,2.25,41.59-72.42,7.87-145.57,24.37-219.47,49.5-7.03-11.07-12.36-23.47-15.5-36.96-2.34-10.07-3.33-20.14-3.1-30.01,71.74-23.5,147.45-39.81,226.53-50.01Z"/>
            <path class="cls-12" d="M1016.12,79.83c55.15-12.83,110.45,21.6,123.28,76.75.97,4.17-1.62,8.34-5.79,9.31-4.17.97-8.34-1.62-9.31-5.79-10.89-46.82-57.84-76.05-104.66-65.16-4.17.97-8.34-1.62-9.31-5.8-.97-4.17,1.62-8.34,5.8-9.31Z"/>
          </g>
          <g>
            <circle class="cls-3" cx="116.04" cy="148.06" r="36.23" transform="translate(-72.04 144.23) rotate(-50.74)"/>
            <path class="cls-34" d="M136.62,166.87c-15.45,7.46-34.02.99-41.48-14.46-6.73-13.92-2.13-30.38,10.16-38.96-1.69.53-3.37,1.19-5.02,1.98-18.02,8.71-25.57,30.37-16.86,48.39,8.7,18.02,30.37,25.57,48.39,16.86,12.42-6,19.87-18.16,20.44-31.04-2.69,7.28-8.08,13.58-15.62,17.22Z"/>
            <path class="cls-2" d="M144.19,125.26c1.72,2.13,3.23,4.47,4.47,7.04,1.9,3.94,3.03,8.05,3.44,12.16-20.9,7.15-41.45,16.91-61.64,29.27-2.82-2.81-5.22-6.12-7.05-9.9-1.36-2.82-2.33-5.74-2.92-8.67,19.66-11.73,40.97-21.6,63.69-29.89Z"/>
            <path class="cls-12" d="M101.79,121.65c15.46-7.47,34.12-.97,41.59,14.49.56,1.17.07,2.58-1.09,3.14-1.17.56-2.58.07-3.14-1.09-6.34-13.13-22.18-18.65-35.31-12.31-1.17.56-2.58.07-3.14-1.09-.56-1.17-.07-2.58,1.09-3.14Z"/>
          </g>
        </g>
        <g>
          <g>
            <circle class="cls-20" cx="620.22" cy="384.52" r="31.53"/>
            <path class="cls-16" d="M629.23,407.05c-14.93,0-27.03-12.1-27.03-27.03,0-13.46,9.83-24.61,22.71-26.68-1.53-.23-3.09-.35-4.68-.35-17.41,0-31.53,14.12-31.53,31.53s14.12,31.53,31.53,31.53c12,0,22.44-6.71,27.77-16.58-4.86,4.69-11.47,7.58-18.76,7.58Z"/>
            <path class="cls-11" d="M650.91,377.31c.54,2.32.84,4.73.84,7.21,0,3.8-.67,7.45-1.91,10.83-19.09-2.31-38.88-2.44-59.38-.4-1.14-3.27-1.77-6.77-1.77-10.43,0-2.73.35-5.38,1-7.9,19.85-1.75,40.28-1.42,61.22.69Z"/>
            <path class="cls-12" d="M619.06,358.43c14.94,0,27.1,12.16,27.1,27.1,0,1.13-.92,2.05-2.05,2.05s-2.05-.92-2.05-2.05c0-12.69-10.32-23.01-23.01-23.01-1.13,0-2.05-.92-2.05-2.05s.92-2.05,2.05-2.05Z"/>
          </g>
          <g>
            <circle class="cls-20" cx="405.55" cy="116.72" r="64.91" transform="translate(36.25 320.95) rotate(-45)"/>
            <path class="cls-16" d="M424.09,163.11c-30.73,0-55.65-24.91-55.65-55.65,0-27.7,20.25-50.67,46.75-54.93-3.15-.47-6.36-.72-9.64-.72-35.85,0-64.91,29.06-64.91,64.91s29.06,64.91,64.91,64.91c24.71,0,46.2-13.81,57.16-34.14-10.01,9.66-23.62,15.61-38.62,15.61Z"/>
            <path class="cls-11" d="M468.73,101.88c1.12,4.77,1.73,9.74,1.73,14.85,0,7.83-1.39,15.34-3.93,22.29-39.29-4.75-80.04-5.02-122.24-.82-2.36-6.72-3.65-13.94-3.65-21.47,0-5.62.71-11.07,2.06-16.26,40.86-3.6,82.93-2.92,126.04,1.42Z"/>
            <path class="cls-12" d="M403.15,63.01c30.76,0,55.79,25.03,55.79,55.79,0,2.33-1.89,4.21-4.21,4.21s-4.21-1.89-4.21-4.21c0-26.12-21.25-47.37-47.37-47.37-2.33,0-4.21-1.89-4.21-4.21s1.89-4.21,4.21-4.21Z"/>
          </g>
        </g>
      </g>
    </g>
    <g class="cls-31">
      <g>
        <g>
          <path class="cls-25" d="M1184.21,240.72s34.05-82.97-3.23-98.79c0,0-20.41-4.9-28.05,22.59,0,0-17.59-88.04-66.22-74.02,0,0-38.88,13.08,10.03,92.16,0,0-20.18-9.88-31,5.8-4.14,6-5.12,13.62-3.19,20.64,6.26,22.77,49.94,90.07,79.9,82.34,29.96-7.73,41.75-50.72,41.75-50.72Z"/>
          <path class="cls-13" d="M1100.43,112.22c31.83,41.1,45.38,96.67,36.46,147.84-.6,3.41-1.29,6.8-2.02,10.17,3.25-54.7-8.58-109.68-34.43-158.02h0Z"/>
          <path class="cls-13" d="M1077.2,199.9c25.37,11.61,49.81,38.12,46.15,67.74-6.07-28.17-26.14-48.05-46.15-67.74h0Z"/>
          <path class="cls-13" d="M1177.39,156.8c6.48,39.41-5.94,81.58-30.34,112.87,16.26-35.83,27.56-73.5,30.34-112.87h0Z"/>
        </g>
        <g>
          <path class="cls-25" d="M1303.34,276.36s63.96-62.88,35.91-92.09c0,0-16.83-12.54-34.68,9.73,0,0,18.48-87.86-31.74-94.11,0,0-40.89-3.27-27.05,88.67,0,0-14.66-17.02-30.79-6.87-6.16,3.88-10.06,10.51-11.05,17.72-3.21,23.4,10.46,102.46,41.05,107.14,30.58,4.68,58.34-30.19,58.34-30.19Z"/>
          <path class="cls-13" d="M1276.89,125.27c13.09,50.31,3.68,106.73-24.66,150.26-1.9,2.9-3.86,5.75-5.86,8.55,24.52-49.01,35.28-104.21,30.53-158.82h0Z"/>
          <path class="cls-13" d="M1221.03,196.72c18.75,20.65,30.79,54.65,15.76,80.43,5.5-28.28-5.13-54.46-15.76-80.43h0Z"/>
        </g>
        <g>
          <path class="cls-13" d="M1176.84,345.36s11.36-109.7-38.1-115.42c0,0-25.78,1.3-25.24,36.39,0,0-51.31-97.75-103.81-64.33,0,0-41.32,28.93,43.82,105.23,0,0-27.23-4.65-34.56,17.61-2.8,8.51-1.31,17.84,3.41,25.46,15.28,24.69,90.18,88.92,122.83,69.4,32.65-19.52,31.65-74.32,31.65-74.32Z"/>
          <path class="cls-33" d="M1033.4,222.86c51.81,37.43,87.1,98.28,94.33,161.75.47,4.23.84,8.47,1.14,12.7-15.15-65.66-48.2-126.41-95.48-174.45h0Z"/>
          <path class="cls-33" d="M1036.43,334.35c33.95,4.89,71.99,27.68,77.95,63.89-16.94-31.12-47.52-47.6-77.95-63.89h0Z"/>
          <path class="cls-33" d="M1139.65,248.73c21.32,44.24,21.32,98.3,3.39,143.68,6.74-47.91,7-96.27-3.39-143.68h0Z"/>
        </g>
        <g>
          <path class="cls-13" d="M1194.85,358.11s-11.36-109.7,38.1-115.42c0,0,25.78,1.3,25.24,36.39,0,0,51.31-97.75,103.81-64.33,0,0,41.32,28.93-43.82,105.23,0,0,27.23-4.65,34.56,17.61,2.8,8.51,1.31,17.84-3.41,25.46-15.28,24.69-90.18,88.92-122.83,69.4-32.65-19.52-31.65-74.32-31.65-74.32Z"/>
          <path class="cls-33" d="M1338.29,235.62c-51.81,37.43-87.1,98.28-94.33,161.75-.47,4.23-.84,8.47-1.14,12.7,15.15-65.66,48.2-126.41,95.48-174.45h0Z"/>
          <path class="cls-33" d="M1232.03,261.49c-21.32,44.24-21.32,98.3-3.39,143.68-6.74-47.91-7-96.27,3.39-143.68h0Z"/>
        </g>
        <g>
          <path class="cls-33" d="M1123.72,382.78s-41.87-102.03,3.97-121.48c0,0,25.1-6.03,34.49,27.78,0,0,21.63-108.26,81.42-91.02,0,0,47.81,16.09-12.33,113.32,0,0,24.81-12.15,38.12,7.13,5.09,7.37,6.29,16.74,3.92,25.38-7.69,28-61.41,110.76-98.25,101.25-36.84-9.51-51.34-62.36-51.34-62.36Z"/>
          <path class="cls-21" d="M1226.74,224.78c-39.14,50.54-55.81,118.87-44.83,181.8.74,4.2,1.58,8.37,2.49,12.51-4-67.27,10.55-134.87,42.34-194.31h0Z"/>
          <path class="cls-21" d="M1255.31,332.58c-31.19,14.27-61.25,46.88-56.74,83.3,7.47-34.64,32.15-59.08,56.74-83.3h0Z"/>
          <path class="cls-21" d="M1132.12,279.59c-7.96,48.46,7.3,100.32,37.31,138.79-20-44.06-33.89-90.38-37.31-138.79h0Z"/>
        </g>
        <g>
          <path class="cls-5" d="M1120.2,428.04h137.18c7.88,0,14.28,6.4,14.28,14.28v138.98h-165.73v-138.98c0-7.88,6.4-14.28,14.28-14.28Z" transform="translate(2377.58 1009.33) rotate(180)"/>
          <polygon class="cls-38" points="1105.92 463.18 1105.92 428.04 1271.66 428.04 1271.66 473.44 1105.92 463.18"/>
          <path class="cls-17" d="M1080.67,400.49h219.38c3.73,0,6.76,3.03,6.76,6.76v26.03c0,3.73-3.03,6.76-6.76,6.76h-219.38c-3.73,0-6.76-3.03-6.76-6.76v-26.02c0-3.73,3.03-6.76,6.76-6.76Z" transform="translate(2380.72 840.54) rotate(180)"/>
        </g>
      </g>
    </g>
    <g>
      <path class="cls-2" d="M966.24,374.38c-2.22-3.42-3.47-7.44-3.31-11.5.1-2.56.77-5.19,2.4-7.16,1.17-1.43,2.84-2.29,4.66-2.58,3.65-.57,4.64,1.62,6.01,4.07.64,1.15,2.3,1.14,2.93-.02.44-.82.91-1.56,2-2.1,2.05-1,4.64-1.21,6.52.07,2.64,1.79,3.65,6.15,6.84,6.29,4.66.21,5.06-8.64,9.71-9.05,3.6-.32,5.7,4.92,9.31,4.92,3.5,0,6.2-5.01,9.42-3.64,1.7.73,2.25,2.88,3.65,4.08,2.45,2.1,6.22.56,8.93-1.19,2.71-1.76,6.05-3.75,8.93-2.3,1.63.82,2.57,2.54,3.72,3.96,1.15,1.42,2.96,2.69,4.69,2.1,2.46-.85,2.89-4.8,5.44-5.31,2.57-.51,4.13,2.92,6.58,3.82,4.13,1.52,7.6-4.48,12-4.34,4.05.14,6.49,5.37,10.53,5.59,5.37.3,8.79-8.31,13.94-6.74,2.85.86,4.24,4.62,7.18,5.05,3.91.58,5.79-4.78,9.23-6.71,3.89-2.18,9.12.96,10.45,5.22,1.34,4.26-.21,8.9-2.4,12.78,0,0-3,4.71-3.19,4.88,5.38,9.78,47.87,90.85,53.11,222.99l-37.17,15.7s-121.03,21.86-219.26-2.15c0,0,5.2-185.43,47.13-236.74Z"/>
      <path class="cls-40" d="M962.92,362.88c.1-2.56.78-5.19,2.4-7.16,1.17-1.43,2.84-2.29,4.66-2.58,3.65-.57,4.64,1.62,6.01,4.07.64,1.15,2.3,1.14,2.93-.02.44-.82.91-1.56,2-2.1,2.05-1,4.64-1.21,6.52.07,2.64,1.79,3.65,6.15,6.84,6.29,4.66.21,5.06-8.64,9.71-9.05,3.6-.32,5.7,4.92,9.31,4.92,3.5,0,6.2-5.01,9.42-3.64,1.7.73,2.25,2.88,3.65,4.08,2.45,2.1,6.22.56,8.93-1.19,2.71-1.76,6.05-3.75,8.93-2.3,1.63.82,2.57,2.54,3.72,3.96,1.15,1.42,2.96,2.69,4.69,2.1,2.46-.85,2.89-4.8,5.44-5.31,2.57-.51,4.13,2.92,6.58,3.82,4.13,1.52,7.6-4.48,12-4.34,4.05.14,6.49,5.37,10.53,5.59,5.37.3,8.79-8.31,13.94-6.74,2.85.86,4.24,4.62,7.18,5.05,3.91.58,5.79-4.78,9.23-6.71,3.89-2.18,9.12.96,10.45,5.22,1.34,4.26-.21,8.9-2.4,12.78,0,0-3,4.71-3.19,4.88l-156.18-.19c-2.22-3.42-3.47-7.44-3.31-11.5Z"/>
      <path class="cls-40" d="M974.88,558.49c18.73-5.74,38.41-7.79,57.99-8.44,15.32-.52,30.85-.23,45.73-3.93,11.51-2.86,22.32-8.31,31.67-15.58,8.35-6.5,15.56-14.45,21.19-23.41,2.81-4.47,5.23-9.19,7.18-14.09,1.74-4.36,3.93-7.46,8.92-4.81,4.76,2.52,7.54,8.49,10.16,12.92,3.2,5.41,6.06,11.03,8.47,16.84.79,1.9,1.51,3.82,2.19,5.76,2.11,13.5,3.88,27.82,5.2,42.93-1.92,14.28-7.72,28.14-16.9,38.85l-18.31,7.73s-121.03,21.86-219.26-2.15c0,0,.17-6.19.71-16.59,1.46-2.33,3.22-4.52,5.04-6.45,13.47-14.23,31.3-23.84,50.03-29.59Z"/>
      <path class="cls-7" d="M1175.53,597.57l-37.17,15.7c-14.96-76.88-20.19-157.45-15.95-238.69,7.63,14.27,48.05,95.52,53.11,222.99Z"/>
      <g>
        <path class="cls-12" d="M1011.08,530.67c-.25-2.5.5-5,1.51-7.31.29-.67.61-1.36.54-2.09-.09-.84-.72-1.54-1.45-1.98s-1.56-.65-2.36-.93c-2.25-.79-4.45-2.26-5.22-4.51-.58-1.68-.27-3.54.26-5.23.45-1.42,1.1-2.85,2.3-3.72,1.17-.85,2.69-1.03,4.14-1.03,6.03.02,11.87,3.24,15.39,8.11l29.5-13.38c-1.35-5.86.08-12.37,4.04-16.92.95-1.09,2.09-2.11,3.5-2.43,1.45-.33,2.96.12,4.32.72,1.63.72,3.22,1.71,4.11,3.25,1.19,2.07.85,4.69-.04,6.9-.32.79-.7,1.55-.85,2.39-.15.83-.04,1.77.53,2.39.49.54,1.23.75,1.92.97,2.4.76,4.78,1.84,6.49,3.68,1.72,1.84,2.65,4.57,1.81,6.94-.74,2.1-2.69,3.56-4.74,4.42-3.29,1.38-7.1,1.49-10.47.31-2.27-.79-4.3-2.21-5.92-3.98l-30.79,13.96c.26,2.39-.01,4.84-.91,7.08-1.33,3.31-3.93,6.1-7.13,7.67-2,.98-4.38,1.48-6.45.65-2.33-.94-3.78-3.44-4.03-5.94Z"/>
        <path class="cls-32" d="M1013.84,516.58c.92,1.24,1.62,2.64,2.56,3.87.94,1.23,2.2,2.32,3.72,2.6,2.15.4,4.2-.86,6.14-1.86,3.01-1.54,6.3-2.47,9.66-2.85l-6.32,2.87c.26,2.39-.01,4.84-.91,7.08-1.33,3.31-3.93,6.1-7.13,7.67-2,.98-4.38,1.48-6.45.65-2.33-.94-3.78-3.44-4.03-5.94-.25-2.5.5-5,1.51-7.31.29-.67.61-1.36.54-2.09-.09-.84-.72-1.54-1.45-1.98s-1.56-.65-2.36-.93c-2.25-.79-4.45-2.26-5.22-4.51-.3-.86-.36-1.78-.28-2.69,3.9.33,7.68,2.26,10.01,5.42Z"/>
      </g>
      <g>
        <path class="cls-12" d="M966.61,459.85c1.49-2.02,3.74-3.36,6.03-4.39.66-.3,1.37-.6,1.8-1.19.5-.68.5-1.63.26-2.44-.25-.81-.72-1.53-1.12-2.27-1.14-2.09-1.77-4.66-.83-6.85.7-1.63,2.18-2.8,3.71-3.7,1.28-.75,2.73-1.37,4.21-1.21,1.44.16,2.69,1.04,3.75,2.02,4.45,4.07,6.61,10.38,5.94,16.35l30.84,9.93c2.94-5.24,8.37-9.1,14.36-9.81,1.44-.17,2.97-.16,4.23.55,1.3.73,2.11,2.08,2.71,3.44.72,1.62,1.24,3.43.85,5.17-.51,2.33-2.53,4.04-4.67,5.08-.76.37-1.56.68-2.24,1.19-.67.51-1.22,1.28-1.21,2.13,0,.73.4,1.38.77,2.01,1.27,2.17,2.3,4.57,2.34,7.09.03,2.52-1.11,5.16-3.33,6.36-1.96,1.06-4.38.83-6.48.08-3.36-1.19-6.26-3.67-7.96-6.81-1.15-2.12-1.7-4.52-1.71-6.93l-32.18-10.36c-1.42,1.95-3.27,3.58-5.43,4.63-3.21,1.56-7.01,1.88-10.43.88-2.14-.62-4.24-1.85-5.22-3.85-1.1-2.26-.49-5.08,1.01-7.11Z"/>
        <path class="cls-32" d="M978.12,451.28c-.16,1.54-.57,3.05-.7,4.59-.13,1.54.07,3.19,1.01,4.42,1.32,1.74,3.69,2.18,5.8,2.76,3.26.88,6.33,2.4,9.06,4.38l-6.61-2.13c-1.42,1.95-3.27,3.58-5.43,4.63-3.21,1.56-7.01,1.88-10.43.88-2.14-.62-4.24-1.85-5.22-3.85-1.1-2.26-.49-5.08,1.01-7.11,1.49-2.02,3.74-3.36,6.03-4.39.66-.3,1.37-.6,1.8-1.19.5-.68.5-1.63.26-2.44-.25-.81-.72-1.53-1.12-2.27-1.14-2.09-1.77-4.66-.83-6.85.36-.84.93-1.55,1.6-2.18,2.66,2.86,4.16,6.84,3.77,10.74Z"/>
      </g>
    </g>
    <g class="cls-23">
      <g>
        <g>
          <path class="cls-24" d="M186.4,752.36c53.88-31.6,105.48-26.61,155.82-1.43l-66.56,58.81-76.13-27.35-13.13-30.02Z"/>
          <g>
            <path class="cls-20" d="M204.56,749.33c.1,0,.2.03.3.03-.18-.96-.3-1.95-.3-2.96,0-8.87,7.19-16.07,16.07-16.07,2.73,0,5.26.74,7.52,1.95,1.96-10.4,11.08-18.28,22.05-18.28,6.71,0,12.72,2.96,16.84,7.63,3.8-6.99,11.21-11.74,19.73-11.74,11.33,0,20.68,8.4,22.21,19.32,1.77-.67,3.67-1.08,5.67-1.08,8.88,0,16.07,7.19,16.07,16.07,0,1.96-.4,3.81-1.04,5.54,7.18,1.61,12.55,7.99,12.55,15.66,0,8.87-7.19,16.07-16.07,16.07-2.81,0-5.41-.78-7.71-2.05h-106.18c-2.3,1.27-4.9,2.05-7.71,2.05-8.88,0-16.07-7.2-16.07-16.07s7.19-16.07,16.07-16.07Z"/>
            <circle class="cls-30" cx="303" cy="762.18" r="14.6" transform="translate(-450.2 437.49) rotate(-45)"/>
            <circle class="cls-30" cx="275.36" cy="760.73" r="17.55"/>
          </g>
          <g>
            <path class="cls-29" d="M342.22,750.93c8.88,16.74,15.95,32.13,16.48,51.41.13,4.71-2.63,9.09-6.99,10.89-61.47,25.43-119.64,26.5-174.15.42-4.22-2.02-6.85-6.33-6.65-11.01.91-20.96,4.36-35.17,15.49-50.28,49.93,21.65,102.42,22.15,155.82-1.43Z"/>
            <path class="cls-36" d="M170.91,802.64c.68-15.7,2.79-27.61,8.48-38.96,1.79,3.72,4.05,7.23,6.66,10.41,6.24,7.58,14.27,13.49,22.66,18.59,38.52,23.4,86.62,30.45,130.23,19.09,5.99-1.56,12.31-3.38,18.45-3.85-1.2,2.34-3.16,4.26-5.68,5.3-61.47,25.43-119.64,26.5-174.15.42-4.22-2.02-6.85-6.33-6.65-11.01Z"/>
            <g>
              <path class="cls-12" d="M226.52,805.28c.81-2.39,2.53-4.36,4.41-6.05.54-.49,1.13-.99,1.35-1.69.27-.81-.02-1.71-.5-2.4-.49-.7-1.15-1.24-1.77-1.83-1.73-1.65-3.13-3.91-2.9-6.29.17-1.77,1.22-3.35,2.4-4.67.99-1.11,2.19-2.15,3.65-2.45,1.42-.29,2.89.17,4.21.77,5.5,2.52,9.5,7.88,10.7,13.79h32.49c1.19-5.91,5.19-11.26,10.7-13.79,1.32-.6,2.79-1.06,4.21-.77,1.46.3,2.65,1.34,3.65,2.45,1.19,1.33,2.23,2.9,2.4,4.67.23,2.38-1.17,4.64-2.9,6.29-.61.59-1.28,1.13-1.77,1.83-.49.7-.77,1.6-.5,2.4.23.69.81,1.2,1.35,1.69,1.88,1.69,3.6,3.66,4.41,6.05.81,2.39.52,5.27-1.22,7.09-1.54,1.61-3.93,2.14-6.16,2.07-3.58-.11-7.1-1.58-9.69-4.05-1.75-1.67-3.01-3.79-3.76-6.09h-33.91c-.75,2.29-2.02,4.42-3.76,6.09-2.59,2.47-6.11,3.95-9.69,4.05-2.23.07-4.62-.46-6.16-2.07-1.74-1.82-2.03-4.7-1.22-7.09Z"/>
              <path class="cls-32" d="M234.88,793.56c.32,1.52.39,3.08.74,4.6.35,1.51,1.05,3.03,2.32,3.91,1.8,1.25,4.19.95,6.38.85,3.38-.16,6.78.35,10,1.39h-6.96c-.75,2.29-2.02,4.42-3.76,6.09-2.59,2.47-6.11,3.95-9.69,4.05-2.23.07-4.62-.46-6.16-2.07-1.74-1.82-2.03-4.7-1.22-7.09.81-2.39,2.53-4.36,4.41-6.05.54-.49,1.13-.99,1.35-1.69.27-.81-.02-1.71-.5-2.4-.49-.7-1.15-1.24-1.77-1.83-1.73-1.65-3.13-3.91-2.9-6.29.09-.91.41-1.77.86-2.57,3.42,1.91,6.08,5.25,6.9,9.1Z"/>
            </g>
          </g>
        </g>
        <g>
          <path class="cls-24" d="M588.09,934.66c65.48-38.41,128.19-32.34,189.37-1.74l-80.89,71.47-92.53-33.24-15.95-36.49Z"/>
          <g>
            <path class="cls-20" d="M610.15,930.98c.12,0,.24.04.36.04-.22-1.17-.36-2.37-.36-3.6,0-10.79,8.74-19.53,19.53-19.53,3.32,0,6.4.91,9.13,2.37,2.38-12.64,13.46-22.21,26.8-22.21,8.16,0,15.46,3.6,20.46,9.28,4.62-8.5,13.63-14.26,23.98-14.26,13.77,0,25.13,10.21,26.99,23.47,2.15-.81,4.45-1.31,6.89-1.31,10.79,0,19.53,8.74,19.53,19.53,0,2.38-.49,4.63-1.27,6.73,8.72,1.95,15.26,9.71,15.26,19.03,0,10.79-8.74,19.53-19.53,19.53-3.41,0-6.58-.95-9.37-2.49h-129.04c-2.79,1.54-5.95,2.49-9.37,2.49-10.79,0-19.53-8.74-19.53-19.53s8.74-19.53,19.53-19.53Z"/>
            <circle class="cls-30" cx="729.8" cy="946.59" r="17.75" transform="translate(-455.59 793.29) rotate(-45)"/>
            <circle class="cls-30" cx="696.19" cy="944.83" r="21.33" transform="translate(-399.65 524.7) rotate(-32.64)"/>
          </g>
          <g>
            <path class="cls-29" d="M777.46,932.91c10.79,20.34,19.39,39.05,20.03,62.48.16,5.72-3.2,11.05-8.49,13.24-74.7,30.91-145.41,32.21-211.65.51-5.13-2.45-8.33-7.7-8.08-13.38,1.1-25.47,5.3-42.74,18.83-61.1,60.68,26.32,124.48,26.92,189.37-1.74Z"/>
            <path class="cls-36" d="M569.26,995.76c.83-19.08,3.39-33.56,10.31-47.34,2.18,4.52,4.92,8.79,8.1,12.65,7.58,9.21,17.34,16.4,27.53,22.6,46.81,28.44,105.27,37.01,158.28,23.2,7.28-1.9,14.96-4.1,22.42-4.68-1.46,2.84-3.84,5.18-6.91,6.45-74.7,30.91-145.41,32.21-211.65.51-5.13-2.46-8.33-7.7-8.08-13.38Z"/>
            <g>
              <path class="cls-12" d="M636.84,998.97c.98-2.91,3.08-5.3,5.36-7.35.66-.59,1.37-1.21,1.65-2.05.32-.98-.02-2.07-.61-2.92-.59-.85-1.4-1.51-2.15-2.22-2.1-2.01-3.8-4.75-3.52-7.64.21-2.16,1.48-4.07,2.92-5.68,1.21-1.35,2.66-2.62,4.43-2.98,1.73-.35,3.51.21,5.11.94,6.69,3.06,11.55,9.57,13,16.75h39.49c1.45-7.18,6.31-13.69,13-16.75,1.6-.73,3.38-1.29,5.11-.94,1.77.36,3.22,1.63,4.43,2.98,1.45,1.61,2.72,3.52,2.92,5.68.28,2.89-1.42,5.63-3.52,7.64-.75.71-1.56,1.37-2.15,2.22-.59.85-.93,1.94-.61,2.92.28.84.99,1.46,1.65,2.05,2.28,2.05,4.38,4.44,5.36,7.35.98,2.91.64,6.41-1.48,8.62-1.88,1.96-4.78,2.6-7.49,2.52-4.35-.13-8.63-1.92-11.78-4.92-2.12-2.02-3.66-4.61-4.58-7.4h-41.21c-.92,2.79-2.45,5.37-4.58,7.4-3.15,3.01-7.43,4.79-11.78,4.92-2.71.08-5.61-.56-7.49-2.52-2.12-2.21-2.46-5.72-1.48-8.62Z"/>
              <path class="cls-32" d="M647,984.72c.39,1.84.47,3.75.9,5.58.43,1.84,1.27,3.68,2.82,4.76,2.18,1.52,5.1,1.15,7.76,1.03,4.11-.19,8.24.43,12.15,1.7h-8.46c-.92,2.79-2.45,5.37-4.58,7.4-3.15,3.01-7.43,4.79-11.78,4.92-2.71.08-5.61-.56-7.49-2.52-2.12-2.21-2.46-5.72-1.48-8.62.98-2.91,3.08-5.3,5.36-7.35.66-.59,1.37-1.21,1.65-2.05.32-.98-.02-2.07-.61-2.92-.59-.85-1.4-1.51-2.15-2.22-2.1-2.01-3.8-4.75-3.52-7.64.11-1.11.5-2.15,1.05-3.12,4.16,2.33,7.39,6.38,8.39,11.06Z"/>
            </g>
          </g>
        </g>
      </g>
    </g>
    <g>
      <path class="cls-8" d="M849.64,558.99s-13.08,52.99-39.45,76.45l-30.87,32.23s-19.08,17.32-18.44,51.66c0,0-.45,26.61,5.15,37.7,1.48,2.94,4.68,4.57,7.94,4.16,10.11-1.26,36.44-8.5,35.57-49.76l40.09-18.43s19.31-7.12,35.81-11.37c0,0,21.01-4.72,29.16-26.16l33.21-53.6-98.18-42.88Z"/>
      <path class="cls-8" d="M837.12,223.82c8.6,17.2,20.23,49.69,4.38,85.04-15.85,35.35-30.18,6.69-30.18,6.69,0,0-7.64-62.11-23.89-76.44-16.24-14.33,49.69-15.29,49.69-15.29Z"/>
      <path class="cls-22" d="M790.3,253.44c8.6,14.33,17.2,31.53,19.11,62.11,1.91,30.58,26.75-12.42,26.75-12.42,0,0,8.6-64.02-7.64-73.57-16.24-9.56-38.22,23.89-38.22,23.89Z"/>
      <path class="cls-8" d="M786.67,223.82c-14.33-1.15-21.98,7.64-15.29,42.04,6.69,34.4,51.37-30.54,63.43-26.26,12.06,4.28,8.96-6.23,0-15.78-17.56-.1-48.14,0-48.14,0Z"/>
      <path class="cls-8" d="M1082.69,661.93c0,38.94,16.24,53.03,58.29,77.87v19.11c-24.84-3.82-39.18,4.78-39.18,12.42h62.11l49.69-98.42-58.29-58.29-72.62,47.3Z"/>
      <path class="cls-1" d="M836.16,457.92c17.2,52.55-18.15,160.53,107.02,212.13,100.72,41.52,203.53-1.91,214.99-7.64,15.29,25.43,29.62,61.15,65.93,67.84,36.31,6.69,64.02,19.11,62.11,45.86-13.38,0-18.16,7.64-16.24,19.11h64.98s4.78-43.95-25.8-70.71c-30.58-26.75-27.71-47.78-34.4-67.84-6.69-20.07-19.11-54.46-32.49-86.95,35.35,9.56,70.81.49,100.33-32.49,29.08-32.49,64.02-248.43-31.53-257.03,0,0-14.33-4.78-7.64,24.84,6.69,29.62.96,177.73-68.8,254.17-17.2-21.64-212.13-81.22-233.15-90.77-21.02-9.56-21.02-2.87-33.44-46.82-12.42-43.95-30.58-116.57-63.06-118.48-32.49-1.91-70.71-8.6-96.51,10.51-25.8,19.11-33.44,21.98-32.49,36.31.96,14.33-.08,42.04-.08,42.04l60.28,65.93Z"/>
      <path class="cls-1" d="M904.18,234.33c9.38,19.11,15.11,67.84,5.56,86.95-9.55,19.11,20.07,33.44,20.07,33.44,0,0,27.71-24.84,35.35-55.42,7.64-30.58,7.64-69.75-7.64-64.98-15.29,4.78-53.33,0-53.33,0Z"/>
      <path class="cls-22" d="M803.67,376.7l13.43-38.22h7.59l4.78,44.91s26.75,22.93,31.53,22.93,21.02-3.82,19.11,4.78c-1.91,8.6,10.51.96-7.64,20.07-18.16,19.11-65.96,58.29-93.65,56.38-24.84-1.71-33.19-11.33-36.95-31.92-.43-2.37-.89.75-1.18-2.01-8.48-.07-21.38,3.73-21.1-16.72.28-20.06-5.73-29.62,11.47-35.35,17.2-5.73,72.62-24.84,72.62-24.84Z"/>
      <path class="cls-27" d="M867.68,374.46c0,7.59-4.33,13.75-9.66,13.75s-9.66-6.16-9.66-13.75,4.33-13.75,9.66-13.75,9.66,6.16,9.66,13.75Z"/>
      <path class="cls-6" d="M851.46,369.9c0,3.67,1.47,6.65,3.28,6.65s3.28-2.98,3.28-6.65-1.47-6.65-3.28-6.65-3.28,2.98-3.28,6.65Z"/>
      <path class="cls-27" d="M800.56,364.45c0,7.59-4.33,13.75-9.66,13.75s-9.66-6.16-9.66-13.75,4.33-13.75,9.66-13.75,9.66,6.16,9.66,13.75Z"/>
      <path class="cls-6" d="M784.34,360.07c0,3.67,1.47,6.65,3.28,6.65s3.28-2.98,3.28-6.65-1.47-6.65-3.28-6.65-3.28,2.98-3.28,6.65Z"/>
      <path class="cls-27" d="M732.97,412.06h37.26s-.96,17.2-18.63,19.11c-17.68,1.91-18.63-19.11-18.63-19.11Z"/>
      <path class="cls-27" d="M725.32,452.19c9.22,1.94,19.15,1.98,26.4-4.7,18.52,18.84,40.67,15.94,62.19,4.15,20.48-10.46,40.08-22.78,59.52-35.77-16.41,16.81-35.62,30.77-56.27,42-21.66,12.93-49.5,15.53-67.05-6.06,0,0,2.68.25,2.68.25-8.17,5.55-19.03,4-27.46.13h0Z"/>
      <path class="cls-22" d="M909,242.25c3.78,20.88,4.41,57.19-4.51,71.93,14.53,4.15,26.36,12.24,28.77,23.61,9.3-6.14,26.51-71.93,17.37-105.97-10.63-2.41-41.63,10.43-41.63,10.43Z"/>
      <path class="cls-1" d="M889.87,223.72c-8.6,12.52-16.3,51.72-5.73,53.46,35.67,5.88,72.62-37.64,76.44-27.34,3.82,10.29,10.51-16.46,0-18.37-10.51-1.91-67.36-14.04-70.71-7.74Z"/>
      <path class="cls-9" d="M956.01,672.2c-38.46-7.01-107.68-31.63-109.64-134.13-1.96-102.5,59.03-49.05,71.18-25.02,12.15,24.02,52.63,81.08,52.63,81.08l-14.17,78.08Z"/>
      <path class="cls-1" d="M952.73,537.23c-49.69,89.82-7.64,164.35,22.93,231.24-5.73,0-26.75,4.78-22.93,23.89h69.75l-12.42-260.86-57.33,5.73Z"/>
      <path class="cls-22" d="M982.53,459.02c4.03,4.05,9.25,5.01,18.94,9.41,21.02,9.56,215.95,69.13,233.15,90.77,69.75-76.44,75.49-224.55,68.8-254.17-.53-2.35-.92-4.46-1.2-6.39,13.31,19.32,26.57,25.08,34.61,21.97-55.39-44.66,26.79-40.7,31.56,67.59,1.32,29.93-.39,61.82-4.1,92.32-5.98,26.86-14.04,48.15-21.7,56.71-29.52,32.98-64.97,42.04-100.33,32.49,3.3,8,6.53,16.12,9.64,24.11-43.15-22.25-46.88-5.07-49.77,2.16-3.82,9.56-20.07,8.12-48.79,56.4-11.13,5.73-20-10.23-38.15-11.19-45.86,11.47-100.84-20.01-100.84-20.01l1.33,27.87s-18.02,10.46-52.42-7.7c-34.4-18.15-.96-82.17,20.07-109.88,17.35-22.86,1.53-54.17-.78-72.48Z"/>
      <path class="cls-29" d="M838.83,506.78c2.67,3.71,4.37,2.69,6.7,2.82,22.36,1.29,45.48,2.46,66.35-6.34,12.62-5.33,38.07-11.3,70.4-49.12-2.03-8.54-5.07-34.33-13.09-27.78-35.48,29.03-45.68,51.18-129.6,54.69-7.38.31-1.14,22.16-.75,25.72Z"/>
      <path class="cls-11" d="M894.37,519.38c-.84,13.56-12.52,23.87-26.09,23.03-13.56-.84-23.87-12.52-23.03-26.09.84-13.56,12.52-23.87,26.09-23.03,13.56.84,23.87,12.52,23.03,26.09Z"/>
      <path class="cls-6" d="M887.98,520.91s.06,0,.09,0c1.06.07,1.97-.74,2.03-1.79.34-5.42-1.46-10.64-5.05-14.72-3.59-4.07-8.54-6.5-13.97-6.83-1.06-.07-1.97.74-2.03,1.79-.06,1.06.76,1.93,1.79,2.03,9.06.59,16,8.41,15.44,17.48-.06,1.03.69,1.92,1.71,2.03Z"/>
    </g>
    <g class="cls-4">
      <g>
        <g>
          <path class="cls-38" d="M987.86,830.52c-7.78,13.16-23.81,18.86-38.88,21.41-15.07,2.55-30.9,3.1-44.52,10.05-9.5,4.84-17.66,13.14-20.27,23.48-2.62,10.33,1.39,22.56,10.71,27.74,6.35,3.53,13.99,3.49,21.25,3.36,14.94-.27,29.88-.54,44.82-.8,15.82-.28,31.79-.59,47.15-4.4,10.33-2.56,20.53-6.87,28.12-14.33,6.55-6.43,10.8-14.83,14.18-23.37,5.39-13.58,8.89-28.21,7.56-42.76-1.33-14.55-7.97-29.03-19.77-37.64-9.95-7.26-30.15-12.06-40.13-2.01-3.92,3.94-4.67,9.62-4.98,14.91-.5,8.61-.69,16.7-5.23,24.37Z"/>
          <path class="cls-17" d="M1268.77,883.08c-4.03-57.25,4.56-93.12.53-150.37-.22-3.11-.49-6.39-2.11-8.97-4.21-6.71-13.53-4.24-20.43-1.37-36.79,15.29-89.64-.73-128.83-5.88-10.16-1.34-21.55-4.32-26.7-14.07-2.69-5.09-3.4-11.65-7.53-15.4-5.55-5.04-13.79-2.21-20.38.83-19.13,8.84-38.25,17.68-57.38,26.52-6.45,2.98-19.12,5.79-23.1,12.69-3.79,6.59,2.83,15.43,4.44,21.95,2.74,11.11.95,21.17,1.44,32.27-2.16,18.46-7.88,36.23-9.86,54.72-1.63,15.14-.28,31.6,6.72,44.49-2.91,1.03-5.76,2.27-8.52,3.8-9.48,5.28-17.6,14.36-20.18,25.71-2.57,11.34,1.48,24.79,10.83,30.52,6.36,3.9,14.01,3.89,21.27,3.78,14.94-.23,29.88-.46,44.82-.69,15.82-.24,31.8-.51,47.14-4.63,10.33-2.77,20.5-7.46,28.06-15.62,3.12-3.37,5.7-7.25,7.92-11.39,47.18-.87,98.6,3.2,145.52-2.68,2.6-.33,5.35-.72,7.38-2.52,3.49-3.09-.71-18.77-1.06-23.7Z"/>
          <path class="cls-38" d="M1264.96,799.05c-.65-1.65-1.46-3.46-3.11-4.11-2.17-.85-4.48.77-6.18,2.38-4.14,3.91-7.79,8.33-10.86,13.12-2.84,4.43-5.29,9.32-9.48,12.51-5.01,3.82-11.63,4.54-17.77,5.94-19.55,4.45-37.04,17.3-47.11,34.64-4.93,8.49-8.05,18-9.27,27.73-.88,7.05-.4,13.9.27,20.88,33.89.53,68.51,1.22,100.99-2.84,2.6-.33,5.35-.72,7.38-2.52,3.49-3.09-.71-18.77-1.06-23.7-1.97-28.07-.92-50.99.2-73.81-1.32-3.42-2.67-6.83-4.01-10.22Z"/>
          <g>
            <path class="cls-15" d="M1072.54,826.2s10.4,60.57-86.71,54.89"/>
            <path class="cls-15" d="M1132.83,855.43s7.23,26.24-15.8,53.8"/>
          </g>
          <path class="cls-28" d="M1269.83,906.78c3.49-3.09-.71-18.77-1.06-23.7-4.03-57.25,4.56-93.12.53-150.37-.22-3.11-.49-6.39-2.11-8.97-4.21-6.71-13.53-4.24-20.43-1.37-23.69,9.85-54.04,6.71-83.12,1.85,12.45,17.74,35.9,26.16,51.39,42.09,14.91,15.32,21.59,36.9,24.6,58.06,3,21.17,2.83,42.72,6.51,63.78,1.36,7.77,3.83,16.15,8.74,21.99,2.53-.26,5.06-.53,7.57-.85,2.6-.33,5.35-.72,7.38-2.52Z"/>
        </g>
        <g>
          <path class="cls-29" d="M988.43,783.41c1.92-.03,3.82-.09,5.7-.18,17.98-.86,36.56-1.89,52.49-10.69,9.64-5.33,41.1-24.44,63.74-57.41-7.79-1.85-15.24-5.35-19.12-12.71-2.69-5.09-3.4-11.65-7.53-15.4-5.55-5.04-13.79-2.21-20.38.83-19.13,8.84-38.25,17.68-57.38,26.52-6.45,2.98-19.12,5.79-23.1,12.69-3.79,6.59,2.83,15.43,4.44,21.95,2.74,11.11.95,21.17,1.44,32.27-.08.71-.2,1.42-.3,2.13Z"/>
          <path class="cls-20" d="M1034,786.91c.47,10.91-7.99,20.14-18.9,20.62-10.91.47-20.14-7.99-20.62-18.9-.47-10.91,7.99-20.14,18.9-20.62,10.91-.47,20.14,7.99,20.62,18.9Z"/>
          <path class="cls-6" d="M1029.02,788.67s.05,0,.07,0c.85-.04,1.51-.76,1.47-1.61-.19-4.36-2.07-8.38-5.28-11.33-3.22-2.95-7.38-4.47-11.75-4.28-.85.04-1.51.76-1.47,1.61.04.85.77,1.48,1.61,1.47,7.29-.3,13.5,5.36,13.82,12.67.04.83.72,1.47,1.54,1.47Z"/>
        </g>
        <g>
          <g>
            <path class="cls-26" d="M996.82,599.46c-8.76,5.91-19.01,9.75-26.53,17.17-9.31,9.19-13.11,22.72-13.78,35.78-.67,13.06,1.42,26.1,2.09,39.16.67,13.06-.21,26.68-6.3,38.25-3.16,6-7.86,11.43-14.08,14.13-8.24,3.59-18.4,1.69-25.26-4.11-6.86-5.8-10.39-15.1-9.83-24.07.55-8.75,4.64-16.93,5.77-25.63,1.12-8.63-.79-17.62-5.34-25.03-3.66-5.97-9.07-11.21-10.36-18.09-1.49-7.93,2.92-15.69,7.57-22.28,18.29-25.9,43.67-47.15,73.28-58.48,6.27-2.4,12.92-4.38,19.6-3.74,6.7.65,16.91,6.07,18.15,13.47,1.56,9.31-8.16,18.86-14.98,23.46Z"/>
            <path class="cls-39" d="M970.29,616.64c7.51-7.42,17.77-11.27,26.53-17.17,6.82-4.6,16.54-14.15,14.98-23.46-1.24-7.4-11.45-12.82-18.15-13.47-1.53-.15-3.06-.14-4.59-.04-8.07,4.05-15.94,8.51-23.51,13.43-11.46,7.45-22.77,16.45-28.03,29.07-4,9.61-4.07,20.31-5.47,30.62-3.24,23.88-13.84,47.53-9.24,71.19l5.26-.42c8.3,5.72,18.96,6.4,29.03,6.88.18,0,.35.02.53.02,1.19-7.12,1.34-14.49.97-21.71-.67-13.06-2.76-26.1-2.09-39.16.67-13.06,4.47-26.59,13.78-35.78Z"/>
          </g>
          <path class="cls-17" d="M982.43,571.56c-19.27,11.06-33.87,29.98-39.7,51.42-3.47,12.76-4,26.43-9.59,38.41-7.01,15.02-9.5,25.24-13.75,41.26-4.73,17.82,17.69,62.11,61.01,62.56,28.22.29,57.1-7.08,79.63-24.09,22.52-17.01,44.25-45.6,42.18-73.74-1.38-18.71,3.13-46.04-5.26-62.82-6.23-12.46-25.17-38.65-52.05-41.94-19.97-2.45-46.06-.48-62.47,8.95Z"/>
          <path class="cls-38" d="M1096.95,604.56c-6.23-12.46-25.17-38.65-52.05-41.94-6.82-.84-14.35-1.14-21.96-.83-5.95,23.31-16.85,76.52.68,98.79,18.46,23.46,40.75,34.77,73.66,34.43,3.69-8.97,5.61-18.32,4.93-27.63-1.38-18.71,3.13-46.04-5.26-62.82Z"/>
          <path class="cls-38" d="M1006.86,563.46c-9.06,1.56-17.59,4.18-24.43,8.1-19.27,11.06-33.87,29.98-39.7,51.42-3.47,12.76-4,26.43-9.59,38.41-3.61,7.74-6.02,14.2-8.09,20.84,26.31,1.69,46.73-6.49,65.7-24.15,19.94-18.57,18.3-69.45,16.11-94.63Z"/>
          <g>
            <path class="cls-26" d="M1055.34,597.8c9.62,7.81,21.21,13.36,29.23,22.81,9.93,11.7,12.98,27.9,12.41,43.23-.57,15.34-4.36,30.35-6.49,45.54-2.13,15.2-2.51,31.19,3.42,45.35,3.07,7.33,8.01,14.16,14.99,17.96,9.26,5.04,21.32,3.88,29.94-2.19,8.62-6.07,13.7-16.57,13.98-27.11.27-10.29-3.67-20.26-4.09-30.54-.42-10.19,2.75-20.5,8.82-28.7,4.89-6.6,11.75-12.16,13.97-20.07,2.56-9.11-1.79-18.63-6.54-26.81-18.7-32.16-46.16-59.6-79.59-75.91-7.08-3.45-14.64-6.45-22.52-6.39-7.9.06-20.39,5.34-22.6,13.86-2.78,10.72,7.59,22.88,15.09,28.96Z"/>
            <path class="cls-39" d="M1148.78,713.78c-.02-.31-.06-.61-.07-.92-.42-10.19,2.75-20.5,8.82-28.7,4.89-6.6,11.75-12.16,13.97-20.07,2.55-9.11-1.79-18.63-6.54-26.81-18.7-32.16-46.16-59.6-79.59-75.91-7.08-3.45-14.64-6.45-22.52-6.39-1.87.02-4.01.33-6.2.91,2.67,4.09,7.43,6.4,11.91,8.49,29.39,13.71,58.85,30.81,76.38,58.09,4.49,6.99,8.19,14.8,8.6,23.11.56,11.2-4.81,21.75-7.24,32.7-2.61,11.74-1.65,24.2,2.48,35.49Z"/>
          </g>
          <g>
            <g>
              <path class="cls-39" d="M999.22,685.62l-27.96-.06c-6.68-.02-10.07,8.04-5.38,12.8l13.95,14.16c2.94,2.98,7.74,2.99,10.69.02l14.01-14.09c4.71-4.74,1.37-12.81-5.32-12.83Z"/>
              <g>
                <path class="cls-39" d="M985.09,737.18s-.05,0-.07,0c-.85,0-1.53-.69-1.53-1.53l.06-25.79c0-.85.77-1.53,1.53-1.53.85,0,1.53.69,1.53,1.53l-.06,25.79c0,.82-.65,1.49-1.46,1.53Z"/>
                <path class="cls-39" d="M987.02,737.07c-9.62.42-21.08-2.08-33.44-10.88-.69-.49-.85-1.45-.36-2.14.49-.69,1.45-.85,2.14-.36,32.27,22.98,57.13,1.19,58.17.25.63-.57,1.59-.52,2.16.11.56.63.52,1.59-.11,2.16-.17.16-11.46,10.11-28.56,10.85Z"/>
              </g>
            </g>
            <g>
              <path class="cls-35" d="M967.84,724.44c1.75-.08,1.64-2.8-.12-2.73-1.75.08-1.64,2.8.12,2.73h0Z"/>
              <path class="cls-35" d="M971.62,715.29c1.75-.08,1.64-2.8-.12-2.73-1.75.08-1.64,2.8.12,2.73h0Z"/>
              <path class="cls-35" d="M958.75,717.1c1.75-.08,1.64-2.8-.12-2.73-1.75.08-1.64,2.8.12,2.73h0Z"/>
              <path class="cls-35" d="M950.95,710.76c1.75-.08,1.64-2.8-.12-2.73-1.75.08-1.64,2.8.12,2.73h0Z"/>
              <path class="cls-35" d="M962.94,707.94c1.75-.08,1.64-2.8-.12-2.73-1.75.08-1.64,2.8.12,2.73h0Z"/>
              <path class="cls-35" d="M992.96,725.85c1.75-.08,1.64-2.8-.12-2.73-1.75.08-1.64,2.8.12,2.73h0Z"/>
              <path class="cls-35" d="M1006.88,724.2c1.75-.08,1.64-2.8-.12-2.73-1.75.08-1.64,2.8.12,2.73h0Z"/>
              <path class="cls-35" d="M999.47,717.01c1.75-.08,1.64-2.8-.12-2.73-1.75.08-1.64,2.8.12,2.73h0Z"/>
              <path class="cls-35" d="M1010.93,711.7c1.75-.08,1.64-2.8-.12-2.73-1.75.08-1.64,2.8.12,2.73h0Z"/>
              <path class="cls-35" d="M1016.94,715.41c1.75-.08,1.64-2.8-.12-2.73-1.75.08-1.64,2.8.12,2.73h0Z"/>
            </g>
            <g>
              <g>
                <ellipse class="cls-39" cx="968.26" cy="638.11" rx="15.43" ry="8.86" transform="translate(116.51 1425.01) rotate(-76.12)"/>
                <path class="cls-6" d="M975.53,630.03c.1,2.41-1.76,4.45-4.17,4.55-2.41.1-4.45-1.76-4.55-4.17-.1-2.41,1.76-4.45,4.17-4.55,2.41-.1,4.45,1.76,4.55,4.17Z"/>
              </g>
              <g>
                <path class="cls-39" d="M1051.6,640.73c.37,8.52-3.29,15.59-8.18,15.8-4.89.21-9.15-6.52-9.52-15.03-.37-8.52,3.29-15.59,8.18-15.8,4.89-.21,9.15,6.52,9.52,15.03Z"/>
                <path class="cls-6" d="M1046.74,632.15c.1,2.41-1.76,4.45-4.17,4.55-2.41.1-4.45-1.76-4.55-4.17-.1-2.41,1.76-4.45,4.17-4.55,2.41-.1,4.45,1.76,4.55,4.17Z"/>
              </g>
            </g>
          </g>
        </g>
      </g>
    </g>
  </g>
</svg>