<?xml version="1.0" encoding="UTF-8"?>
<svg id="Layer_1" xmlns="http://www.w3.org/2000/svg" viewBox="0 0 3389 3167.64">
  <defs>
    <style>
      .cls-1 {
        fill: #d69954;
      }

      .cls-2 {
        fill: #518a81;
      }

      .cls-3 {
        fill: #cff6f1;
      }

      .cls-4 {
        opacity: .24;
      }

      .cls-4, .cls-5 {
        fill: #603813;
      }

      .cls-6 {
        fill: #f2f2f2;
      }

      .cls-7 {
        fill: #91e5d8;
      }

      .cls-8 {
        fill: #f2a125;
      }

      .cls-9 {
        fill: #feeab5;
      }

      .cls-10 {
        fill: #c3783c;
      }

      .cls-11 {
        fill: #806042;
      }

      .cls-12 {
        fill: #fbcb48;
      }

      .cls-13 {
        fill: #72bbaa;
      }
    </style>
  </defs>
  <g>
    <path class="cls-10" d="M1505.94,2823.5s-383.59,50.8-336.36,319.28h1554.29s224.84-21.61,238.99-243.1c14.15-221.49,5.56-1128.6,5.56-1128.6,0,0-68.69,355.02-249,480.38-180.31,125.36-303.86,276.97-303.86,276.97,0,0-121.17-51.45-159.81-143.38,0,0-17.17,347.14-300.52,451.61-283.35,104.47-449.29-13.17-449.29-13.17Z"/>
    <path class="cls-6" d="M1955.23,2865.51s125.72,271.79,323.14,288.96l-1104.56-14.44s-10.2-267.89,348.23-276.48c0,0,297.62,96.21,433.19,1.96Z"/>
    <path class="cls-4" d="M2951.7,2150.82l-493.78,516.52s-48.16-1.62-126.13-34.1c0,0-311.88,651.18-970.28,252.68l95.4-27.23s136.89,45.8,244.09,26.31c107.2-19.49,324.85-38.98,357.34-84.46,32.49-45.48,227.4-298.87,227.4-298.87l129.81,47.45,503.66-557.47,32.49,159.18Z"/>
    <path class="cls-3" d="M440.91,2329.39l-6.94-1055.69,1275.31-723.99,719.29,415.38s-633.47,74.72-646.46,146.18c0,0-510.02-227.4-643.21-74.72-133.19,152.68-51.98,555.5,58.47,639.96,110.45,84.46,87.71,120.2,87.71,120.2l-107.2,350.84s-405.18-188.59-736.98,181.83Z"/>
    <polygon class="cls-7" points="448.99 1473.8 1718.15 741.76 2653.78 1274.55 2575.81 1040.64 1709.28 549.71 440.14 1262.05 448.99 1473.8"/>
    <path class="cls-10" d="M2410.3,2564.99s412.12-354.37,473.56-513.09c61.44-158.72,248.51-491.87,2.75-804.19-245.76-312.32-791.22-358.04-1108.66-122.52,0,0-337.92-215.04-634.87-122.88l450.56,793.59,107.52,158.72s209.92-10.24,256,35.84c0,0,56.32-163.84,220.16-194.56,0,0-144.81,468.57,232.99,769.09Z"/>
    <path class="cls-1" d="M2218.42,1012.13c-157.56,0-320.4,73.43-436.96,165.74,107.12-70.5,233.96-110.03,369.92-110.03,383.76,0,694.86,324.94,694.86,725.78,0,236.27-143,449.26-310.34,581.79,195.22-128.49,395.05-353.51,395.37-612.34.54-425.99-329.09-750.94-712.85-750.94Z"/>
    <path class="cls-12" d="M1189.99,2133.95s-85.89,515.36,315.87,717.63c0,0-382.46,69.54-369.58,292.79l-551.56-11.55-144.98-142.8,1.17-660.62s256.42-305.34,749.08-195.44Z"/>
    <path class="cls-8" d="M1456.92,2858.68l19.57-19.74-96.54-63.58c-25.63-56.3-374.66,109.62-369.29,358.9l128.5,5.78,10.11-10.11c53.42-212.25,191.06-243.04,307.65-271.24Z"/>
    <path class="cls-12" d="M1522.48,2036.97s-108.34-203.92-241.35-216.39c0,0-216.14,320.05-41.57,764.81,0,0,87.29,245.24,494.63,303.43,407.34,58.19,502.94-428.12,502.94-428.12,0,0-190.78-366.62-66.3-634.3,0,0-189.56,69.5-238.29,210.58,0,0-243.54-116.13-410.07,0Z"/>
    <path class="cls-8" d="M1726.43,2824.5c-274.89,0-499.16-199.11-511.32-448.92-2.13,17.43-3.23,35.14-3.23,53.09,0,259.73,229.16,470.28,511.85,470.28s511.85-210.55,511.85-470.28c0-7.16-.18-14.28-.53-21.37-28.7,234.74-245.47,417.2-508.62,417.2Z"/>
    <path class="cls-9" d="M1173.06,2240.39s-364.11-100.43-720.44,109.94c0,0,218.95-313.4,717.98-213.61l2.46,103.67Z"/>
    <path class="cls-8" d="M1248.33,1870.86s112.21,70.65,128.83,197.41c0,0-199.48,89.35-189.09,313.77,0,0-24.94-394.81,60.26-511.18Z"/>
    <path class="cls-8" d="M2112.23,2105.56c-2.04-44.7-.77-89.56,10.88-133,9.09-33.91,23.25-66.13,38.94-97.48-23.71,16.93-108.4,84.39-122.66,193.19,0,0,34.14,15.31,73.44,49.13-.2-3.94-.4-7.89-.58-11.83Z"/>
    <path class="cls-6" d="M1140.92,993.64c1.22-1.65-95.12,156.54-95.12,376.7s286.72,445.44,286.72,445.44l30.72-35.84c107.52,0,199.68,209.92,199.68,209.92,35.84-30.72,230.4-51.2,230.4-51.2,0,0-51.83-183.96-114.71-398.81-130.81-446.97-356.17-543.55-356.17-543.55,0,0-24.96-51.68-181.52-2.66Z"/>
    <path class="cls-4" d="M2218.27,1677.69s-358.4,312.32-1085.43-40.96l209.92,189.44s10.24-35.84,66.56-5.12c56.32,30.72,110.01,177.53,115.94,202.67,0,0,324.38-90.03,431.9-13.23,0,0,117.76-189.44,220.16-194.56l40.96-138.24Z"/>
    <path class="cls-2" d="M161.36,1278.74l-89.46-155.69c-39.06-67.98-15.62-154.75,52.36-193.81L1593.75,81.55c71.45-41.05,159.33-41.08,230.8-.06l1440.11,831.45c68,39.02,91.49,125.78,52.47,193.78l-89.37,155.74c-39.02,68-125.78,91.49-193.78,52.47l-1324.7-765.21L355.17,1331.11c-67.98,39.06-154.75,15.62-193.81-52.36Z"/>
    <path class="cls-13" d="M3333.43,1169.77l-59.65,103.94c-36.02,62.74-101.86,97.92-169.47,97.92-32.9,0-66.21-8.32-96.75-25.84l-1298.29-749.95L381.68,1361.9c-30.02,17.26-63.26,26.05-96.94,26.05-17.07,0-34.24-2.25-51.16-6.82-50.29-13.58-92.29-45.94-118.23-91.12l-59.8-104.07c7.43-38.75,30.86-74.18,67.44-95.66.41-.28.84-.52,1.26-.76L1593.75,241.83c71.45-41.04,159.34-41.06,230.81-.06l1440.11,831.45c.45.26.89.52,1.34.8,36.6,21.51,60.04,56.98,67.42,95.75Z"/>
  </g>
  <ellipse class="cls-6" cx="1752.08" cy="2546.6" rx="159.55" ry="128.5"/>
  <g>
    <path class="cls-5" d="M1874.32,2387.62c24.52,0,44.4-19.88,44.4-44.4,0-31.01,25.22-56.23,56.23-56.23s56.23,25.22,56.23,56.23c0,24.52,19.88,44.4,44.4,44.4s44.4-19.88,44.4-44.4c0-79.97-65.06-145.03-145.03-145.03s-145.03,65.06-145.03,145.03c0,24.52,19.88,44.4,44.4,44.4Z"/>
    <path class="cls-5" d="M1660.12,2343.22c0-79.97-65.06-145.03-145.03-145.03s-145.03,65.06-145.03,145.03c0,24.52,19.88,44.4,44.4,44.4s44.4-19.88,44.4-44.4c0-31.01,25.23-56.23,56.23-56.23s56.23,25.22,56.23,56.23c0,24.52,19.88,44.4,44.4,44.4s44.4-19.88,44.4-44.4Z"/>
    <path class="cls-5" d="M1848.6,1486.46c26.91,0,48.73-21.82,48.73-48.73,0-53.1,43.2-96.3,96.3-96.3s96.29,43.2,96.29,96.3c0,26.91,21.82,48.73,48.73,48.73s48.73-21.82,48.73-48.73c0-106.84-86.92-193.76-193.75-193.76s-193.76,86.92-193.76,193.76c0,26.91,21.82,48.73,48.73,48.73Z"/>
    <path class="cls-5" d="M1810.73,2621.88c52.7,0,95.57-42.87,95.57-95.57,0-20.33-16.48-36.82-36.82-36.82s-36.82,16.48-36.82,36.82c0,12.1-9.84,21.94-21.94,21.94s-21.93-9.84-21.93-21.94c0-.26,0-.53.01-.79.01-.4-.02-.79-.02-1.19l28.1-36.19c13.43-17.33-3.36-38.93-30.22-38.93h-64.15c-26.87,0-43.66,21.6-30.22,38.93l23.43,30.2c-.26,1.59-.46,3.18-.51,4.83-.03,1.05-.05,2.1-.05,3.16,0,12.1-9.84,21.93-21.94,21.93s-21.94-9.84-21.94-21.94c0-.22,0-.45.01-.67.72-20.32-15.17-37.38-35.49-38.1-20.27-.77-37.38,15.17-38.1,35.49-.04,1.09-.06,2.18-.06,3.28,0,52.7,42.87,95.57,95.57,95.57,22.14,0,42.53-7.59,58.75-20.28,16.22,12.69,36.61,20.28,58.75,20.28Z"/>
    <path class="cls-5" d="M3291.2,869.16L1850.96,37.64c-87.5-50.23-196.18-50.18-283.72.11L97.83,885.4c-93.24,53.58-125.51,173.03-71.95,266.24l29.67,51.63,59.8,104.07c25.95,45.18,67.94,77.54,118.23,91.12,16.91,4.57,34.09,6.82,51.16,6.82,33.68,0,66.92-8.79,96.94-26.05l8.93-5.15v1555.86c0,79.32,32.33,143.14,92.72,184.99,49.99,34.64,119.55,52.72,200.4,52.72h2035.54c161.19,0,294-130.67,294-291.85v-1509.52c28.95,15.37,60.18,22.69,91.03,22.69,67.62,0,133.46-35.17,169.47-97.92l59.65-103.94,29.74-51.81c53.52-93.26,21.18-212.68-71.97-266.13ZM1709.27,613.16l532.76,307.75c-167.25-3.62-330.56,45.71-466.28,140.79-153.14-99.89-383.98-121.39-480.66-125.99-104.54-4.98-199.37,60.99-230.65,160.41-47.66,151.47-86.63,438.46,165.51,698.35-61.42,83.4-95.29,178.25-96.5,271.62-50.21-10.47-126.35-21.42-214.85-17.74-92.2,3.84-179.63,22.8-258.57,56.34-62.47,26.54-120.26,62.23-172.47,106.58v-893.16l1221.71-704.97ZM2113.07,2122.3c8.65,121.51,38.14,224.42,87.64,305.86,5.71,9.4,11.57,18.17,17.51,26.59-45.52,236.07-240.47,407.11-464.22,407.11h-15.03c-270.68,0-508.11-237.79-508.11-509.11v-281.49c0-75.19,28.04-152.83,79.58-221.71,45.41,22.43,131.12,77.95,168.64,189.68l17.93,53.96,50.48-26.1c.79-.4,80.6-40.21,199-42.03,115.7,1.78,190.52,39.87,193.72,41.52l50.72,28.19,18.65-55.55c20.17-60.07,56.99-109.45,109.44-146.98-8.94,82.87-10.96,159.74-5.95,230.05ZM2268.64,1619.6c6.62-26.09-9.16-52.6-35.24-59.22-26.08-6.63-52.6,9.16-59.22,35.25-15.34,60.45-27.91,118.7-37.73,174.66-55.85,25.03-146.14,80.23-199.54,189.72-41.51-14.44-107.09-31.23-189.72-32.4h-.69s-.69,0-.69,0c-83.69,1.18-151.24,18.36-193.68,32.83-67.11-140.17-191.83-197.42-230.54-212.31-169.03-161.21-206.09-334.68-193.05-480.49,72.07,46.8,234.09-20.79,288.53-106.34,32.66-51.33,9.89-91.22-24.12-119.32,107.1,13.26,259.38,44.56,353.21,118.22l29.86,23.45,30.04-23.23c271.93-210.28,660.26-185.58,903.29,57.44,128.78,128.8,199.71,300.78,199.71,484.28,0,149.59-49.32,296.83-138.92,414.63-18.49,24.37-38.95,47.81-60.79,69.65l-305.99,305.99c-30.37-14.74-84.01-50.17-127.53-128.94-61.26-110.89-112.24-329.95-7.19-743.86ZM1113.73,3070.69h-430c-60.92,0-111.53-12.33-145.14-35.62-33.89-23.49-51.02-57.89-51.02-105.14v-581.73c109.38-126.15,255.59-194.2,431.4-202.32,93.13-4.3,172.68,10.11,214.95,20.13v186.74c0,79.3,16.31,157.42,49,232.19,31.28,71.54,75.51,136.4,131.72,192.78,18.7,18.75,38.29,36.16,58.79,52.24-16.26,5.14-33.43,11.39-50.87,18.96-107.84,46.79-179.57,122.32-208.82,221.76ZM2913.84,2875.79c0,107.44-87.12,194.9-194.57,194.9h-1501.94c25.08-57.18,72.5-100.78,141.56-131.29,64.32-28.42,125.41-34.77,134.25-35.57,4.55,2.13,9.12,5.09,13.72,7.11,74.7,32.84,152.79,50.37,232.1,50.37h15.03c69.57,0,137.3-13.85,201.31-39.43,61.08-24.41,117.43-60.15,167.48-105.36,81.23-73.38,141.78-170.09,174.62-276.88,56.16,44.66,103.96,56.31,107.04,57.03l26.4,6.13,347.41-347.44c24.97-24.96,48.21-51.78,69.34-79.63,24.92-32.77,46.35-67.35,66.24-103.46v803.51ZM3271.12,1082.47l-5.11,8.88-84.27,146.86c-24.39,42.51-78.84,57.26-121.22,32.94L1709.29,490.62,399.19,1246.6l-8.08-.44c-.09,1.74-.16,3.49-.24,5.24l-62.15,35.86c-20.58,11.83-44.55,14.94-67.46,8.75-22.91-6.19-42.06-20.94-53.89-41.54l-84.38-146.86-5.09-8.84c-24.41-42.49-9.7-96.94,32.88-121.41L1620.19,129.73c27.46-15.79,58.26-23.67,89.06-23.67s61.42,7.84,88.78,23.54l1440.24,831.52c42.51,24.41,57.24,78.84,32.85,121.35Z"/>
  </g>
  <path class="cls-11" d="M1204.31,1063.83s97.34-33.84,126.66-18.05c92.55,49.83.96,142.17-46.24,156.16,0,0,76.92-139.85-80.42-138.1Z"/>
</svg>